<svg width="120" height="96" viewBox="0 0 120 96" fill="none" xmlns="http://www.w3.org/2000/svg">
<g clip-path="url(#clip0_936_197)">
<rect x="24.4526" y="33.5098" width="70.6415" height="28.9811" fill="#BFF728"/>
<path d="M60 0C63.3187 0 66 2.68125 66 6V18H88.5C95.9625 18 102 24.0375 102 31.5V82.5C102 89.9625 95.9625 96 88.5 96H31.5C24.0375 96 18 89.9625 18 82.5V31.5C18 24.0375 24.0375 18 31.5 18H54V6C54 2.68125 56.6813 0 60 0ZM39 72C37.35 72 36 73.35 36 75C36 76.65 37.35 78 39 78H45C46.65 78 48 76.65 48 75C48 73.35 46.65 72 45 72H39ZM57 72C55.35 72 54 73.35 54 75C54 76.65 55.35 78 57 78H63C64.65 78 66 76.65 66 75C66 73.35 64.65 72 63 72H57ZM75 72C73.35 72 72 73.35 72 75C72 76.65 73.35 78 75 78H81C82.65 78 84 76.65 84 75C84 73.35 82.65 72 81 72H75ZM49.5 48C49.5 46.0109 48.7098 44.1032 47.3033 42.6967C45.8968 41.2902 43.9891 40.5 42 40.5C40.0109 40.5 38.1032 41.2902 36.6967 42.6967C35.2902 44.1032 34.5 46.0109 34.5 48C34.5 49.9891 35.2902 51.8968 36.6967 53.3033C38.1032 54.7098 40.0109 55.5 42 55.5C43.9891 55.5 45.8968 54.7098 47.3033 53.3033C48.7098 51.8968 49.5 49.9891 49.5 48ZM78 55.5C79.9891 55.5 81.8968 54.7098 83.3033 53.3033C84.7098 51.8968 85.5 49.9891 85.5 48C85.5 46.0109 84.7098 44.1032 83.3033 42.6967C81.8968 41.2902 79.9891 40.5 78 40.5C76.0109 40.5 74.1032 41.2902 72.6967 42.6967C71.2902 44.1032 70.5 46.0109 70.5 48C70.5 49.9891 71.2902 51.8968 72.6967 53.3033C74.1032 54.7098 76.0109 55.5 78 55.5ZM9 42H12V78H9C4.03125 78 0 73.9688 0 69V51C0 46.0312 4.03125 42 9 42ZM111 42C115.969 42 120 46.0312 120 51V69C120 73.9688 115.969 78 111 78H108V42H111Z" fill="#29E3A9"/>
</g>
<defs>
<clipPath id="clip0_936_197">
<rect width="120" height="96" fill="white"/>
</clipPath>
</defs>
</svg>
