<svg width="122" height="96" viewBox="0 0 122 96" fill="none" xmlns="http://www.w3.org/2000/svg">
<path d="M95.125 92.625H92.5V95.25H95.125V92.625Z" fill="#FEFEFE"/>
<path d="M89.875 92.625H87.25V95.25H89.875V92.625Z" fill="#29E3A9"/>
<path d="M92.5 92.625H89.875V95.25H92.5V92.625Z" fill="#29E3A9"/>
<path d="M87.25 92.625H84.625V95.25H87.25V92.625Z" fill="#29E3A9"/>
<path d="M84.625 92.625H82V95.25H84.625V92.625Z" fill="#29E3A9"/>
<path d="M82 92.625H79.375V95.25H82V92.625Z" fill="#29E3A9"/>
<path d="M79.375 92.625H76.75V95.25H79.375V92.625Z" fill="#29E3A9"/>
<path d="M76.75 92.625H74.125V95.25H76.75V92.625Z" fill="#29E3A9"/>
<path d="M74.125 92.625H71.5V95.25H74.125V92.625Z" fill="#29E3A9"/>
<path d="M71.5 92.625H68.875V95.25H71.5V92.625Z" fill="#29E3A9"/>
<path d="M68.875 92.625H66.25V95.25H68.875V92.625Z" fill="#29E3A9"/>
<path d="M66.25 92.625H63.625V95.25H66.25V92.625Z" fill="#29E3A9"/>
<path d="M63.625 92.625H61V95.25H63.625V92.625Z" fill="#29E3A9"/>
<path d="M61 92.625H58.375V95.25H61V92.625Z" fill="#29E3A9"/>
<path d="M58.375 92.625H55.75V95.25H58.375V92.625Z" fill="#29E3A9"/>
<path d="M55.75 92.625H53.125V95.25H55.75V92.625Z" fill="#29E3A9"/>
<path d="M53.125 92.625H50.5V95.25H53.125V92.625Z" fill="#29E3A9"/>
<path d="M50.5 92.625H47.875V95.25H50.5V92.625Z" fill="#29E3A9"/>
<path d="M47.875 92.625H45.25V95.25H47.875V92.625Z" fill="#29E3A9"/>
<path d="M45.25 92.625H42.625V95.25H45.25V92.625Z" fill="#29E3A9"/>
<path d="M42.625 92.625H40V95.25H42.625V92.625Z" fill="#29E3A9"/>
<path d="M40 92.625H37.375V95.25H40V92.625Z" fill="#29E3A9"/>
<path d="M37.375 92.625H34.75V95.25H37.375V92.625Z" fill="#29E3A9"/>
<path d="M34.75 92.625H32.125V95.25H34.75V92.625Z" fill="#2AE3A9"/>
<path d="M32.125 92.625H29.5V95.25H32.125V92.625Z" fill="#2AE3A9"/>
<path d="M95.125 90H92.5V92.625H95.125V90Z" fill="#29E3A9"/>
<path d="M92.5 90H89.875V92.625H92.5V90Z" fill="#29E3A9"/>
<path d="M89.875 90H87.25V92.625H89.875V90Z" fill="#29E3A9"/>
<path d="M87.25 90H84.625V92.625H87.25V90Z" fill="#29E3A9"/>
<path d="M84.625 90H82V92.625H84.625V90Z" fill="#29E3A9"/>
<path d="M82 90H79.375V92.625H82V90Z" fill="#29E3A9"/>
<path d="M79.375 90H76.75V92.625H79.375V90Z" fill="#29E3A9"/>
<path d="M76.75 90H74.125V92.625H76.75V90Z" fill="#29E3A9"/>
<path d="M74.125 90H71.5V92.625H74.125V90Z" fill="#29E3A9"/>
<path d="M71.5 90H68.875V92.625H71.5V90Z" fill="#29E3A9"/>
<path d="M68.875 90H66.25V92.625H68.875V90Z" fill="#29E3A9"/>
<path d="M66.25 90H63.625V92.625H66.25V90Z" fill="#29E3A9"/>
<path d="M63.625 90H61V92.625H63.625V90Z" fill="#29E3A9"/>
<path d="M61 90H58.375V92.625H61V90Z" fill="#29E3A9"/>
<path d="M58.375 90H55.75V92.625H58.375V90Z" fill="#29E3A9"/>
<path d="M55.75 90H53.125V92.625H55.75V90Z" fill="#29E3A9"/>
<path d="M53.125 90H50.5V92.625H53.125V90Z" fill="#29E3A9"/>
<path d="M50.5 90H47.875V92.625H50.5V90Z" fill="#29E3A9"/>
<path d="M47.875 90H45.25V92.625H47.875V90Z" fill="#29E3A9"/>
<path d="M45.25 90H42.625V92.625H45.25V90Z" fill="#29E3A9"/>
<path d="M42.625 90H40V92.625H42.625V90Z" fill="#29E3A9"/>
<path d="M40 90H37.375V92.625H40V90Z" fill="#29E3A9"/>
<path d="M37.375 90H34.75V92.625H37.375V90Z" fill="#29E3A9"/>
<path d="M34.75 90H32.125V92.625H34.75V90Z" fill="#29E3A9"/>
<path d="M32.125 90H29.5V92.625H32.125V90Z" fill="#29E3A9"/>
<path d="M29.5 90H26.875V92.625H29.5V90Z" fill="#29E3A9"/>
<path d="M97.75 87.375H95.125V90H97.75V87.375Z" fill="#29E3A9"/>
<path d="M95.125 87.375H92.5V90H95.125V87.375Z" fill="#29E3A9"/>
<path d="M92.5 87.375H89.875V90H92.5V87.375Z" fill="#29E3A9"/>
<path d="M89.875 87.375H87.25V90H89.875V87.375Z" fill="#29E3A9"/>
<path d="M87.25 87.375H84.625V90H87.25V87.375Z" fill="#29E3A9"/>
<path d="M84.625 87.375H82V90H84.625V87.375Z" fill="#29E3A9"/>
<path d="M82 87.375H79.375V90H82V87.375Z" fill="#29E3A9"/>
<path d="M79.375 87.375H76.75V90H79.375V87.375Z" fill="#29E3A9"/>
<path d="M76.75 87.375H74.125V90H76.75V87.375Z" fill="#29E3A9"/>
<path d="M74.125 87.375H71.5V90H74.125V87.375Z" fill="#29E3A9"/>
<path d="M71.5 87.375H68.875V90H71.5V87.375Z" fill="#29E3A9"/>
<path d="M68.875 87.375H66.25V90H68.875V87.375Z" fill="#29E3A9"/>
<path d="M66.25 87.375H63.625V90H66.25V87.375Z" fill="#29E3A9"/>
<path d="M63.625 87.375H61V90H63.625V87.375Z" fill="#29E3A9"/>
<path d="M61 87.375H58.375V90H61V87.375Z" fill="#29E3A9"/>
<path d="M58.375 87.375H55.75V90H58.375V87.375Z" fill="#29E3A9"/>
<path d="M55.75 87.375H53.125V90H55.75V87.375Z" fill="#29E3A9"/>
<path d="M53.125 87.375H50.5V90H53.125V87.375Z" fill="#29E3A9"/>
<path d="M50.5 87.375H47.875V90H50.5V87.375Z" fill="#29E3A9"/>
<path d="M47.875 87.375H45.25V90H47.875V87.375Z" fill="#29E3A9"/>
<path d="M45.25 87.375H42.625V90H45.25V87.375Z" fill="#29E3A9"/>
<path d="M42.625 87.375H40V90H42.625V87.375Z" fill="#29E3A9"/>
<path d="M40 87.375H37.375V90H40V87.375Z" fill="#29E3A9"/>
<path d="M37.375 87.375H34.75V90H37.375V87.375Z" fill="#29E3A9"/>
<path d="M34.75 87.375H32.125V90H34.75V87.375Z" fill="#29E3A9"/>
<path d="M32.125 87.375H29.5V90H32.125V87.375Z" fill="#29E3A9"/>
<path d="M29.5 87.375H26.875V90H29.5V87.375Z" fill="#29E3A9"/>
<path d="M26.875 87.375H24.25V90H26.875V87.375Z" fill="#29E3A9"/>
<path d="M100.375 84.75H97.75V87.375H100.375V84.75Z" fill="#29E3A9"/>
<path d="M97.75 84.75H95.125V87.375H97.75V84.75Z" fill="#29E3A9"/>
<path d="M95.125 84.75H92.5V87.375H95.125V84.75Z" fill="#29E3A9"/>
<path d="M92.5 84.75H89.875V87.375H92.5V84.75Z" fill="#29E3A9"/>
<path d="M89.875 84.75H87.25V87.375H89.875V84.75Z" fill="#29E3A9"/>
<path d="M87.25 84.75H84.625V87.375H87.25V84.75Z" fill="#29E3A9"/>
<path d="M84.625 84.75H82V87.375H84.625V84.75Z" fill="#29E3A9"/>
<path d="M82 84.75H79.375V87.375H82V84.75Z" fill="#29E3A9"/>
<path d="M79.375 84.75H76.75V87.375H79.375V84.75Z" fill="#29E3A9"/>
<path d="M76.75 84.75H74.125V87.375H76.75V84.75Z" fill="#29E3A9"/>
<path d="M74.125 84.75H71.5V87.375H74.125V84.75Z" fill="#29E3A9"/>
<path d="M71.5 84.75H68.875V87.375H71.5V84.75Z" fill="#29E3A9"/>
<path d="M68.875 84.75H66.25V87.375H68.875V84.75Z" fill="#29E3A9"/>
<path d="M66.25 84.75H63.625V87.375H66.25V84.75Z" fill="#29E3A9"/>
<path d="M63.625 84.75H61V87.375H63.625V84.75Z" fill="#29E3A9"/>
<path d="M61 84.75H58.375V87.375H61V84.75Z" fill="#29E3A9"/>
<path d="M58.375 84.75H55.75V87.375H58.375V84.75Z" fill="#29E3A9"/>
<path d="M55.75 84.75H53.125V87.375H55.75V84.75Z" fill="#29E3A9"/>
<path d="M53.125 84.75H50.5V87.375H53.125V84.75Z" fill="#29E3A9"/>
<path d="M50.5 84.75H47.875V87.375H50.5V84.75Z" fill="#29E3A9"/>
<path d="M47.875 84.75H45.25V87.375H47.875V84.75Z" fill="#29E3A9"/>
<path d="M45.25 84.75H42.625V87.375H45.25V84.75Z" fill="#29E3A9"/>
<path d="M42.625 84.75H40V87.375H42.625V84.75Z" fill="#29E3A9"/>
<path d="M40 84.75H37.375V87.375H40V84.75Z" fill="#29E3A9"/>
<path d="M37.375 84.75H34.75V87.375H37.375V84.75Z" fill="#29E3A9"/>
<path d="M34.75 84.75H32.125V87.375H34.75V84.75Z" fill="#29E3A9"/>
<path d="M32.125 84.75H29.5V87.375H32.125V84.75Z" fill="#29E3A9"/>
<path d="M29.5 84.75H26.875V87.375H29.5V84.75Z" fill="#29E3A9"/>
<path d="M26.875 84.75H24.25V87.375H26.875V84.75Z" fill="#29E3A9"/>
<path d="M24.25 84.75H21.625V87.375H24.25V84.75Z" fill="#29E3A9"/>
<path d="M100.375 82.125H97.75V84.75H100.375V82.125Z" fill="#29E3A9"/>
<path d="M97.75 82.125H95.125V84.75H97.75V82.125Z" fill="#29E3A9"/>
<path d="M95.125 82.125H92.5V84.75H95.125V82.125Z" fill="#29E3A9"/>
<path d="M92.5 82.125H89.875V84.75H92.5V82.125Z" fill="#29E3A9"/>
<path d="M89.875 82.125H87.25V84.75H89.875V82.125Z" fill="#29E3A9"/>
<path d="M87.25 82.125H84.625V84.75H87.25V82.125Z" fill="#29E3A9"/>
<path d="M84.625 82.125H82V84.75H84.625V82.125Z" fill="#29E3A9"/>
<path d="M82 82.125H79.375V84.75H82V82.125Z" fill="#29E3A9"/>
<path d="M79.375 82.125H76.75V84.75H79.375V82.125Z" fill="#29E3A9"/>
<path d="M76.75 82.125H74.125V84.75H76.75V82.125Z" fill="#29E3A9"/>
<path d="M74.125 82.125H71.5V84.75H74.125V82.125Z" fill="#29E3A9"/>
<path d="M71.5 82.125H68.875V84.75H71.5V82.125Z" fill="#29E3A9"/>
<path d="M68.875 82.125H66.25V84.75H68.875V82.125Z" fill="#29E3A9"/>
<path d="M66.25 82.125H63.625V84.75H66.25V82.125Z" fill="#29E3A9"/>
<path d="M63.625 82.125H61V84.75H63.625V82.125Z" fill="#29E3A9"/>
<path d="M61 82.125H58.375V84.75H61V82.125Z" fill="#29E3A9"/>
<path d="M58.375 82.125H55.75V84.75H58.375V82.125Z" fill="#29E3A9"/>
<path d="M55.75 82.125H53.125V84.75H55.75V82.125Z" fill="#29E3A9"/>
<path d="M53.125 82.125H50.5V84.75H53.125V82.125Z" fill="#29E3A9"/>
<path d="M50.5 82.125H47.875V84.75H50.5V82.125Z" fill="#29E3A9"/>
<path d="M47.875 82.125H45.25V84.75H47.875V82.125Z" fill="#29E3A9"/>
<path d="M45.25 82.125H42.625V84.75H45.25V82.125Z" fill="#29E3A9"/>
<path d="M42.625 82.125H40V84.75H42.625V82.125Z" fill="#29E3A9"/>
<path d="M40 82.125H37.375V84.75H40V82.125Z" fill="#29E3A9"/>
<path d="M37.375 82.125H34.75V84.75H37.375V82.125Z" fill="#29E3A9"/>
<path d="M34.75 82.125H32.125V84.75H34.75V82.125Z" fill="#29E3A9"/>
<path d="M32.125 82.125H29.5V84.75H32.125V82.125Z" fill="#29E3A9"/>
<path d="M29.5 82.125H26.875V84.75H29.5V82.125Z" fill="#29E3A9"/>
<path d="M26.875 82.125H24.25V84.75H26.875V82.125Z" fill="#29E3A9"/>
<path d="M24.25 82.125H21.625V84.75H24.25V82.125Z" fill="#29E3A9"/>
<path d="M100.375 79.5H97.75V82.125H100.375V79.5Z" fill="#29E3A9"/>
<path d="M97.75 79.5H95.125V82.125H97.75V79.5Z" fill="#29E3A9"/>
<path d="M95.125 79.5H92.5V82.125H95.125V79.5Z" fill="#29E3A9"/>
<path d="M92.5 79.5H89.875V82.125H92.5V79.5Z" fill="#29E3A9"/>
<path d="M89.875 79.5H87.25V82.125H89.875V79.5Z" fill="#29E3A9"/>
<path d="M87.25 79.5H84.625V82.125H87.25V79.5Z" fill="#29E3A9"/>
<path d="M84.625 79.5H82V82.125H84.625V79.5Z" fill="#29E3A9"/>
<path d="M82 79.5H79.375V82.125H82V79.5Z" fill="#29E3A9"/>
<path d="M79.375 79.5H76.75V82.125H79.375V79.5Z" fill="#29E3A9"/>
<path d="M76.75 79.5H74.125V82.125H76.75V79.5Z" fill="#29E3A9"/>
<path d="M74.125 79.5H71.5V82.125H74.125V79.5Z" fill="#29E3A9"/>
<path d="M71.5 79.5H68.875V82.125H71.5V79.5Z" fill="#29E3A9"/>
<path d="M68.875 79.5H66.25V82.125H68.875V79.5Z" fill="#29E3A9"/>
<path d="M66.25 79.5H63.625V82.125H66.25V79.5Z" fill="#29E3A9"/>
<path d="M63.625 79.5H61V82.125H63.625V79.5Z" fill="#29E3A9"/>
<path d="M61 79.5H58.375V82.125H61V79.5Z" fill="#29E3A9"/>
<path d="M58.375 79.5H55.75V82.125H58.375V79.5Z" fill="#29E3A9"/>
<path d="M55.75 79.5H53.125V82.125H55.75V79.5Z" fill="#29E3A9"/>
<path d="M53.125 79.5H50.5V82.125H53.125V79.5Z" fill="#29E3A9"/>
<path d="M50.5 79.5H47.875V82.125H50.5V79.5Z" fill="#29E3A9"/>
<path d="M47.875 79.5H45.25V82.125H47.875V79.5Z" fill="#29E3A9"/>
<path d="M45.25 79.5H42.625V82.125H45.25V79.5Z" fill="#29E3A9"/>
<path d="M42.625 79.5H40V82.125H42.625V79.5Z" fill="#29E3A9"/>
<path d="M40 79.5H37.375V82.125H40V79.5Z" fill="#29E3A9"/>
<path d="M37.375 79.5H34.75V82.125H37.375V79.5Z" fill="#29E3A9"/>
<path d="M34.75 79.5H32.125V82.125H34.75V79.5Z" fill="#29E3A9"/>
<path d="M32.125 79.5H29.5V82.125H32.125V79.5Z" fill="#29E3A9"/>
<path d="M29.5 79.5H26.875V82.125H29.5V79.5Z" fill="#29E3A9"/>
<path d="M26.875 79.5H24.25V82.125H26.875V79.5Z" fill="#29E3A9"/>
<path d="M24.25 79.5H21.625V82.125H24.25V79.5Z" fill="#29E3A9"/>
<path d="M100.375 76.875H97.75V79.5H100.375V76.875Z" fill="#29E3A9"/>
<path d="M97.75 76.875H95.125V79.5H97.75V76.875Z" fill="#29E3A9"/>
<path d="M95.125 76.875H92.5V79.5H95.125V76.875Z" fill="#29E3A9"/>
<path d="M92.5 76.875H89.875V79.5H92.5V76.875Z" fill="#29E3A9"/>
<path d="M89.875 76.875H87.25V79.5H89.875V76.875Z" fill="#29E3A9"/>
<path d="M87.25 76.875H84.625V79.5H87.25V76.875Z" fill="#29E3A9"/>
<path d="M84.625 76.875H82V79.5H84.625V76.875Z" fill="#29E3A9"/>
<path d="M82 76.875H79.375V79.5H82V76.875Z" fill="#29E3A9"/>
<path d="M79.375 76.875H76.75V79.5H79.375V76.875Z" fill="#29E3A9"/>
<path d="M76.75 76.875H74.125V79.5H76.75V76.875Z" fill="#29E3A9"/>
<path d="M74.125 76.875H71.5V79.5H74.125V76.875Z" fill="#29E3A9"/>
<path d="M71.5 76.875H68.875V79.5H71.5V76.875Z" fill="#29E3A9"/>
<path d="M68.875 76.875H66.25V79.5H68.875V76.875Z" fill="#29E3A9"/>
<path d="M66.25 76.875H63.625V79.5H66.25V76.875Z" fill="#29E3A9"/>
<path d="M63.625 76.875H61V79.5H63.625V76.875Z" fill="#29E3A9"/>
<path d="M61 76.875H58.375V79.5H61V76.875Z" fill="#29E3A9"/>
<path d="M58.375 76.875H55.75V79.5H58.375V76.875Z" fill="#29E3A9"/>
<path d="M55.75 76.875H53.125V79.5H55.75V76.875Z" fill="#29E3A9"/>
<path d="M53.125 76.875H50.5V79.5H53.125V76.875Z" fill="#29E3A9"/>
<path d="M50.5 76.875H47.875V79.5H50.5V76.875Z" fill="#29E3A9"/>
<path d="M47.875 76.875H45.25V79.5H47.875V76.875Z" fill="#29E3A9"/>
<path d="M45.25 76.875H42.625V79.5H45.25V76.875Z" fill="#29E3A9"/>
<path d="M42.625 76.875H40V79.5H42.625V76.875Z" fill="#29E3A9"/>
<path d="M40 76.875H37.375V79.5H40V76.875Z" fill="#29E3A9"/>
<path d="M37.375 76.875H34.75V79.5H37.375V76.875Z" fill="#29E3A9"/>
<path d="M34.75 76.875H32.125V79.5H34.75V76.875Z" fill="#29E3A9"/>
<path d="M32.125 76.875H29.5V79.5H32.125V76.875Z" fill="#29E3A9"/>
<path d="M29.5 76.875H26.875V79.5H29.5V76.875Z" fill="#29E3A9"/>
<path d="M26.875 76.875H24.25V79.5H26.875V76.875Z" fill="#29E3A9"/>
<path d="M24.25 76.875H21.625V79.5H24.25V76.875Z" fill="#29E3A9"/>
<path d="M113.5 74.25H110.875V76.875H113.5V74.25Z" fill="#29E3A9"/>
<path d="M110.875 74.25H108.25V76.875H110.875V74.25Z" fill="#29E3A9"/>
<path d="M100.375 74.25H97.75V76.875H100.375V74.25Z" fill="#29E3A9"/>
<path d="M97.75 74.25H95.125V76.875H97.75V74.25Z" fill="#29E3A9"/>
<path d="M95.125 74.25H92.5V76.875H95.125V74.25Z" fill="#29E3A9"/>
<path d="M92.5 74.25H89.875V76.875H92.5V74.25Z" fill="#29E3A9"/>
<path d="M89.875 74.25H87.25V76.875H89.875V74.25Z" fill="#29E3A9"/>
<path d="M87.25 74.25H84.625V76.875H87.25V74.25Z" fill="#29E3A9"/>
<path d="M74.125 74.25H71.5V76.875H74.125V74.25Z" fill="#3BE5B0"/>
<path d="M71.5 74.25H68.875V76.875H71.5V74.25Z" fill="#29E3A9"/>
<path d="M68.875 74.25H66.25V76.875H68.875V74.25Z" fill="#29E3A9"/>
<path d="M55.75 74.25H53.125V76.875H55.75V74.25Z" fill="#29E3A9"/>
<path d="M53.125 74.25H50.5V76.875H53.125V74.25Z" fill="#29E3A9"/>
<path d="M50.5 74.25H47.875V76.875H50.5V74.25Z" fill="#29E3A9"/>
<path d="M37.375 74.25H34.75V76.875H37.375V74.25Z" fill="#29E3A9"/>
<path d="M34.75 74.25H32.125V76.875H34.75V74.25Z" fill="#29E3A9"/>
<path d="M32.125 74.25H29.5V76.875H32.125V74.25Z" fill="#29E3A9"/>
<path d="M29.5 74.25H26.875V76.875H29.5V74.25Z" fill="#29E3A9"/>
<path d="M26.875 74.25H24.25V76.875H26.875V74.25Z" fill="#29E3A9"/>
<path d="M24.25 74.25H21.625V76.875H24.25V74.25Z" fill="#29E3A9"/>
<path d="M13.75 74.25H11.125V76.875H13.75V74.25Z" fill="#29E3A9"/>
<path d="M11.125 74.25H8.5V76.875H11.125V74.25Z" fill="#29E3A9"/>
<path d="M118.75 71.625H116.125V74.25H118.75V71.625Z" fill="#3CD8A8"/>
<path d="M116.125 74.25H113.5V76.875H116.125V74.25Z" fill="#3CD8A8"/>
<path d="M116.125 71.625H113.5V74.25H116.125V71.625Z" fill="#29E3A9"/>
<path d="M113.5 71.625H110.875V74.25H113.5V71.625Z" fill="#29E3A9"/>
<path d="M110.875 71.625H108.25V74.25H110.875V71.625Z" fill="#29E3A9"/>
<path d="M100.375 71.625H97.75V74.25H100.375V71.625Z" fill="#29E3A9"/>
<path d="M97.75 71.625H95.125V74.25H97.75V71.625Z" fill="#29E3A9"/>
<path d="M95.125 71.625H92.5V74.25H95.125V71.625Z" fill="#29E3A9"/>
<path d="M92.5 71.625H89.875V74.25H92.5V71.625Z" fill="#29E3A9"/>
<path d="M89.875 71.625H87.25V74.25H89.875V71.625Z" fill="#29E3A9"/>
<path d="M87.25 71.625H84.625V74.25H87.25V71.625Z" fill="#29E3A9"/>
<path d="M74.125 71.625H71.5V74.25H74.125V71.625Z" fill="#29E3A9"/>
<path d="M71.5 71.625H68.875V74.25H71.5V71.625Z" fill="#29E3A9"/>
<path d="M68.875 71.625H66.25V74.25H68.875V71.625Z" fill="#29E3A9"/>
<path d="M55.75 71.625H53.125V74.25H55.75V71.625Z" fill="#29E3A9"/>
<path d="M53.125 71.625H50.5V74.25H53.125V71.625Z" fill="#29E3A9"/>
<path d="M50.5 71.625H47.875V74.25H50.5V71.625Z" fill="#29E3A9"/>
<path d="M37.375 71.625H34.75V74.25H37.375V71.625Z" fill="#29E3A9"/>
<path d="M34.75 71.625H32.125V74.25H34.75V71.625Z" fill="#29E3A9"/>
<path d="M32.125 71.625H29.5V74.25H32.125V71.625Z" fill="#29E3A9"/>
<path d="M29.5 71.625H26.875V74.25H29.5V71.625Z" fill="#29E3A9"/>
<path d="M26.875 71.625H24.25V74.25H26.875V71.625Z" fill="#29E3A9"/>
<path d="M24.25 71.625H21.625V74.25H24.25V71.625Z" fill="#29E3A9"/>
<path d="M13.75 71.625H11.125V74.25H13.75V71.625Z" fill="#29E3A9"/>
<path d="M11.125 71.625H8.5V74.25H11.125V71.625Z" fill="#29E3A9"/>
<path d="M8.5 71.625H5.875V74.25H8.5V71.625Z" fill="#29E3A9"/>
<path d="M118.75 69H116.125V71.625H118.75V69Z" fill="#29E3A9"/>
<path d="M116.125 69H113.5V71.625H116.125V69Z" fill="#29E3A9"/>
<path d="M113.5 69H110.875V71.625H113.5V69Z" fill="#29E3A9"/>
<path d="M110.875 69H108.25V71.625H110.875V69Z" fill="#29E3A9"/>
<path d="M100.375 69H97.75V71.625H100.375V69Z" fill="#29E3A9"/>
<path d="M97.75 69H95.125V71.625H97.75V69Z" fill="#29E3A9"/>
<path d="M95.125 69H92.5V71.625H95.125V69Z" fill="#29E3A9"/>
<path d="M92.5 69H89.875V71.625H92.5V69Z" fill="#29E3A9"/>
<path d="M89.875 69H87.25V71.625H89.875V69Z" fill="#29E3A9"/>
<path d="M87.25 69H84.625V71.625H87.25V69Z" fill="#29E3A9"/>
<path d="M84.625 69H82V71.625H84.625V69Z" fill="#29E3A9"/>
<path d="M82 69H79.375V71.625H82V69Z" fill="#29E3A9"/>
<path d="M79.375 69H76.75V71.625H79.375V69Z" fill="#29E3A9"/>
<path d="M76.75 69H74.125V71.625H76.75V69Z" fill="#29E3A9"/>
<path d="M74.125 69H71.5V71.625H74.125V69Z" fill="#29E3A9"/>
<path d="M71.5 69H68.875V71.625H71.5V69Z" fill="#29E3A9"/>
<path d="M68.875 69H66.25V71.625H68.875V69Z" fill="#29E3A9"/>
<path d="M66.25 69H63.625V71.625H66.25V69Z" fill="#29E3A9"/>
<path d="M63.625 69H61V71.625H63.625V69Z" fill="#29E3A9"/>
<path d="M61 69H58.375V71.625H61V69Z" fill="#29E3A9"/>
<path d="M58.375 69H55.75V71.625H58.375V69Z" fill="#29E3A9"/>
<path d="M55.75 69H53.125V71.625H55.75V69Z" fill="#29E3A9"/>
<path d="M53.125 69H50.5V71.625H53.125V69Z" fill="#29E3A9"/>
<path d="M50.5 69H47.875V71.625H50.5V69Z" fill="#29E3A9"/>
<path d="M47.875 69H45.25V71.625H47.875V69Z" fill="#29E3A9"/>
<path d="M45.25 69H42.625V71.625H45.25V69Z" fill="#29E3A9"/>
<path d="M42.625 69H40V71.625H42.625V69Z" fill="#29E3A9"/>
<path d="M40 69H37.375V71.625H40V69Z" fill="#29E3A9"/>
<path d="M37.375 69H34.75V71.625H37.375V69Z" fill="#29E3A9"/>
<path d="M34.75 69H32.125V71.625H34.75V69Z" fill="#29E3A9"/>
<path d="M32.125 69H29.5V71.625H32.125V69Z" fill="#29E3A9"/>
<path d="M29.5 69H26.875V71.625H29.5V69Z" fill="#29E3A9"/>
<path d="M26.875 69H24.25V71.625H26.875V69Z" fill="#29E3A9"/>
<path d="M24.25 69H21.625V71.625H24.25V69Z" fill="#29E3A9"/>
<path d="M13.75 69H11.125V71.625H13.75V69Z" fill="#29E3A9"/>
<path d="M11.125 69H8.5V71.625H11.125V69Z" fill="#29E3A9"/>
<path d="M8.5 69H5.875V71.625H8.5V69Z" fill="#29E3A9"/>
<path d="M5.875 69H3.25V71.625H5.875V69Z" fill="#29E3A9"/>
<path d="M118.75 66.375H116.125V69H118.75V66.375Z" fill="#29E3A9"/>
<path d="M116.125 66.375H113.5V69H116.125V66.375Z" fill="#29E3A9"/>
<path d="M113.5 66.375H110.875V69H113.5V66.375Z" fill="#29E3A9"/>
<path d="M110.875 66.375H108.25V69H110.875V66.375Z" fill="#29E3A9"/>
<path d="M100.375 66.375H97.75V69H100.375V66.375Z" fill="#29E3A9"/>
<path d="M97.75 66.375H95.125V69H97.75V66.375Z" fill="#29E3A9"/>
<path d="M95.125 66.375H92.5V69H95.125V66.375Z" fill="#29E3A9"/>
<path d="M92.5 66.375H89.875V69H92.5V66.375Z" fill="#29E3A9"/>
<path d="M89.875 66.375H87.25V69H89.875V66.375Z" fill="#29E3A9"/>
<path d="M87.25 66.375H84.625V69H87.25V66.375Z" fill="#29E3A9"/>
<path d="M84.625 66.375H82V69H84.625V66.375Z" fill="#29E3A9"/>
<path d="M82 66.375H79.375V69H82V66.375Z" fill="#29E3A9"/>
<path d="M79.375 66.375H76.75V69H79.375V66.375Z" fill="#29E3A9"/>
<path d="M76.75 66.375H74.125V69H76.75V66.375Z" fill="#29E3A9"/>
<path d="M74.125 66.375H71.5V69H74.125V66.375Z" fill="#29E3A9"/>
<path d="M71.5 66.375H68.875V69H71.5V66.375Z" fill="#29E3A9"/>
<path d="M68.875 66.375H66.25V69H68.875V66.375Z" fill="#29E3A9"/>
<path d="M66.25 66.375H63.625V69H66.25V66.375Z" fill="#29E3A9"/>
<path d="M63.625 66.375H61V69H63.625V66.375Z" fill="#29E3A9"/>
<path d="M61 66.375H58.375V69H61V66.375Z" fill="#29E3A9"/>
<path d="M58.375 66.375H55.75V69H58.375V66.375Z" fill="#29E3A9"/>
<path d="M55.75 66.375H53.125V69H55.75V66.375Z" fill="#29E3A9"/>
<path d="M53.125 66.375H50.5V69H53.125V66.375Z" fill="#29E3A9"/>
<path d="M50.5 66.375H47.875V69H50.5V66.375Z" fill="#29E3A9"/>
<path d="M47.875 66.375H45.25V69H47.875V66.375Z" fill="#29E3A9"/>
<path d="M45.25 66.375H42.625V69H45.25V66.375Z" fill="#29E3A9"/>
<path d="M42.625 66.375H40V69H42.625V66.375Z" fill="#29E3A9"/>
<path d="M40 66.375H37.375V69H40V66.375Z" fill="#29E3A9"/>
<path d="M37.375 66.375H34.75V69H37.375V66.375Z" fill="#29E3A9"/>
<path d="M34.75 66.375H32.125V69H34.75V66.375Z" fill="#29E3A9"/>
<path d="M32.125 66.375H29.5V69H32.125V66.375Z" fill="#29E3A9"/>
<path d="M29.5 66.375H26.875V69H29.5V66.375Z" fill="#29E3A9"/>
<path d="M26.875 66.375H24.25V69H26.875V66.375Z" fill="#29E3A9"/>
<path d="M24.25 66.375H21.625V69H24.25V66.375Z" fill="#29E3A9"/>
<path d="M13.75 66.375H11.125V69H13.75V66.375Z" fill="#29E3A9"/>
<path d="M11.125 66.375H8.5V69H11.125V66.375Z" fill="#29E3A9"/>
<path d="M8.5 66.375H5.875V69H8.5V66.375Z" fill="#29E3A9"/>
<path d="M5.875 66.375H3.25V69H5.875V66.375Z" fill="#29E3A9"/>
<path d="M118.75 63.75H116.125V66.375H118.75V63.75Z" fill="#29E3A9"/>
<path d="M116.125 63.75H113.5V66.375H116.125V63.75Z" fill="#29E3A9"/>
<path d="M113.5 63.75H110.875V66.375H113.5V63.75Z" fill="#29E3A9"/>
<path d="M110.875 63.75H108.25V66.375H110.875V63.75Z" fill="#29E3A9"/>
<path d="M100.375 63.75H97.75V66.375H100.375V63.75Z" fill="#29E3A9"/>
<path d="M97.75 63.75H95.125V66.375H97.75V63.75Z" fill="#29E3A9"/>
<path d="M95.125 63.75H92.5V66.375H95.125V63.75Z" fill="#29E3A9"/>
<path d="M92.5 63.75H89.875V66.375H92.5V63.75Z" fill="#29E3A9"/>
<path d="M89.875 63.75H87.25V66.375H89.875V63.75Z" fill="#29E3A9"/>
<path d="M87.25 63.75H84.625V66.375H87.25V63.75Z" fill="#29E3A9"/>
<path d="M84.625 63.75H82V66.375H84.625V63.75Z" fill="#29E3A9"/>
<path d="M82 63.75H79.375V66.375H82V63.75Z" fill="#29E3A9"/>
<path d="M79.375 63.75H76.75V66.375H79.375V63.75Z" fill="#29E3A9"/>
<path d="M76.75 63.75H74.125V66.375H76.75V63.75Z" fill="#29E3A9"/>
<path d="M74.125 63.75H71.5V66.375H74.125V63.75Z" fill="#29E3A9"/>
<path d="M71.5 63.75H68.875V66.375H71.5V63.75Z" fill="#29E3A9"/>
<path d="M68.875 63.75H66.25V66.375H68.875V63.75Z" fill="#29E3A9"/>
<path d="M66.25 63.75H63.625V66.375H66.25V63.75Z" fill="#29E3A9"/>
<path d="M63.625 63.75H61V66.375H63.625V63.75Z" fill="#29E3A9"/>
<path d="M61 63.75H58.375V66.375H61V63.75Z" fill="#29E3A9"/>
<path d="M58.375 63.75H55.75V66.375H58.375V63.75Z" fill="#29E3A9"/>
<path d="M55.75 63.75H53.125V66.375H55.75V63.75Z" fill="#29E3A9"/>
<path d="M53.125 63.75H50.5V66.375H53.125V63.75Z" fill="#29E3A9"/>
<path d="M50.5 63.75H47.875V66.375H50.5V63.75Z" fill="#29E3A9"/>
<path d="M47.875 63.75H45.25V66.375H47.875V63.75Z" fill="#29E3A9"/>
<path d="M45.25 63.75H42.625V66.375H45.25V63.75Z" fill="#29E3A9"/>
<path d="M42.625 63.75H40V66.375H42.625V63.75Z" fill="#29E3A9"/>
<path d="M40 63.75H37.375V66.375H40V63.75Z" fill="#29E3A9"/>
<path d="M37.375 63.75H34.75V66.375H37.375V63.75Z" fill="#29E3A9"/>
<path d="M34.75 63.75H32.125V66.375H34.75V63.75Z" fill="#29E3A9"/>
<path d="M32.125 63.75H29.5V66.375H32.125V63.75Z" fill="#29E3A9"/>
<path d="M29.5 63.75H26.875V66.375H29.5V63.75Z" fill="#29E3A9"/>
<path d="M26.875 63.75H24.25V66.375H26.875V63.75Z" fill="#29E3A9"/>
<path d="M24.25 63.75H21.625V66.375H24.25V63.75Z" fill="#29E3A9"/>
<path d="M13.75 63.75H11.125V66.375H13.75V63.75Z" fill="#29E3A9"/>
<path d="M11.125 63.75H8.5V66.375H11.125V63.75Z" fill="#29E3A9"/>
<path d="M8.5 63.75H5.875V66.375H8.5V63.75Z" fill="#29E3A9"/>
<path d="M5.875 63.75H3.25V66.375H5.875V63.75Z" fill="#29E3A9"/>
<path d="M118.75 61.125H116.125V63.75H118.75V61.125Z" fill="#29E3A9"/>
<path d="M116.125 61.125H113.5V63.75H116.125V61.125Z" fill="#29E3A9"/>
<path d="M113.5 61.125H110.875V63.75H113.5V61.125Z" fill="#29E3A9"/>
<path d="M110.875 61.125H108.25V63.75H110.875V61.125Z" fill="#29E3A9"/>
<path d="M100.375 61.125H97.75V63.75H100.375V61.125Z" fill="#29E3A9"/>
<path d="M97.75 61.125H95.125V63.75H97.75V61.125Z" fill="#29E3A9"/>
<path d="M95.125 61.125H92.5V63.75H95.125V61.125Z" fill="#29E3A9"/>
<path d="M92.5 61.125H89.875V63.75H92.5V61.125Z" fill="#29E3A9"/>
<path d="M89.875 61.125H87.25V63.75H89.875V61.125Z" fill="#29E3A9"/>
<path d="M87.25 61.125H84.625V63.75H87.25V61.125Z" fill="#29E3A9"/>
<path d="M84.625 61.125H82V63.75H84.625V61.125Z" fill="#29E3A9"/>
<path d="M82 61.125H79.375V63.75H82V61.125Z" fill="#29E3A9"/>
<path d="M79.375 61.125H76.75V63.75H79.375V61.125Z" fill="#29E3A9"/>
<path d="M76.75 61.125H74.125V63.75H76.75V61.125Z" fill="#29E3A9"/>
<path d="M74.125 61.125H71.5V63.75H74.125V61.125Z" fill="#29E3A9"/>
<path d="M71.5 61.125H68.875V63.75H71.5V61.125Z" fill="#29E3A9"/>
<path d="M68.875 61.125H66.25V63.75H68.875V61.125Z" fill="#29E3A9"/>
<path d="M66.25 61.125H63.625V63.75H66.25V61.125Z" fill="#29E3A9"/>
<path d="M63.625 61.125H61V63.75H63.625V61.125Z" fill="#29E3A9"/>
<path d="M61 61.125H58.375V63.75H61V61.125Z" fill="#29E3A9"/>
<path d="M58.375 61.125H55.75V63.75H58.375V61.125Z" fill="#29E3A9"/>
<path d="M55.75 61.125H53.125V63.75H55.75V61.125Z" fill="#29E3A9"/>
<path d="M53.125 61.125H50.5V63.75H53.125V61.125Z" fill="#29E3A9"/>
<path d="M50.5 61.125H47.875V63.75H50.5V61.125Z" fill="#29E3A9"/>
<path d="M47.875 61.125H45.25V63.75H47.875V61.125Z" fill="#29E3A9"/>
<path d="M45.25 61.125H42.625V63.75H45.25V61.125Z" fill="#29E3A9"/>
<path d="M42.625 61.125H40V63.75H42.625V61.125Z" fill="#29E3A9"/>
<path d="M40 61.125H37.375V63.75H40V61.125Z" fill="#29E3A9"/>
<path d="M37.375 61.125H34.75V63.75H37.375V61.125Z" fill="#29E3A9"/>
<path d="M34.75 61.125H32.125V63.75H34.75V61.125Z" fill="#29E3A9"/>
<path d="M32.125 61.125H29.5V63.75H32.125V61.125Z" fill="#29E3A9"/>
<path d="M29.5 61.125H26.875V63.75H29.5V61.125Z" fill="#29E3A9"/>
<path d="M26.875 61.125H24.25V63.75H26.875V61.125Z" fill="#29E3A9"/>
<path d="M24.25 61.125H21.625V63.75H24.25V61.125Z" fill="#29E3A9"/>
<path d="M13.75 61.125H11.125V63.75H13.75V61.125Z" fill="#29E3A9"/>
<path d="M11.125 61.125H8.5V63.75H11.125V61.125Z" fill="#29E3A9"/>
<path d="M8.5 61.125H5.875V63.75H8.5V61.125Z" fill="#29E3A9"/>
<path d="M5.875 61.125H3.25V63.75H5.875V61.125Z" fill="#29E3A9"/>
<path d="M118.75 58.5H116.125V61.125H118.75V58.5Z" fill="#29E3A9"/>
<path d="M116.125 58.5H113.5V61.125H116.125V58.5Z" fill="#29E3A9"/>
<path d="M113.5 58.5H110.875V61.125H113.5V58.5Z" fill="#29E3A9"/>
<path d="M110.875 58.5H108.25V61.125H110.875V58.5Z" fill="#29E3A9"/>
<path d="M100.375 58.5H97.75V61.125H100.375V58.5Z" fill="#29E3A9"/>
<path d="M97.75 58.5H95.125V61.125H97.75V58.5Z" fill="#29E3A9"/>
<path d="M95.125 58.5H92.5V61.125H95.125V58.5Z" fill="#29E3A9"/>
<path d="M92.5 58.5H89.875V61.125H92.5V58.5Z" fill="#29E3A9"/>
<path d="M89.875 58.5H87.25V61.125H89.875V58.5Z" fill="#29E3A9"/>
<path d="M87.25 58.5H84.625V61.125H87.25V58.5Z" fill="#29E3A9"/>
<path d="M84.625 58.5H82V61.125H84.625V58.5Z" fill="#29E3A9"/>
<path d="M82 58.5H79.375V61.125H82V58.5Z" fill="#29E3A9"/>
<path d="M79.375 58.5H76.75V61.125H79.375V58.5Z" fill="#29E3A9"/>
<path d="M76.75 58.5H74.125V61.125H76.75V58.5Z" fill="#29E3A9"/>
<path d="M74.125 58.5H71.5V61.125H74.125V58.5Z" fill="#29E3A9"/>
<path d="M71.5 58.5H68.875V61.125H71.5V58.5Z" fill="#29E3A9"/>
<path d="M68.875 58.5H66.25V61.125H68.875V58.5Z" fill="#29E3A9"/>
<path d="M66.25 58.5H63.625V61.125H66.25V58.5Z" fill="#80CFB6"/>
<path d="M63.625 58.5H61V61.125H63.625V58.5Z" fill="#80CFB6"/>
<path d="M61 58.5H58.375V61.125H61V58.5Z" fill="#80CFB6"/>
<path d="M58.375 58.5H55.75V61.125H58.375V58.5Z" fill="#80CFB6"/>
<path d="M55.75 58.5H53.125V61.125H55.75V58.5Z" fill="#29E3A9"/>
<path d="M53.125 58.5H50.5V61.125H53.125V58.5Z" fill="#29E3A9"/>
<path d="M50.5 58.5H47.875V61.125H50.5V58.5Z" fill="#29E3A9"/>
<path d="M47.875 58.5H45.25V61.125H47.875V58.5Z" fill="#29E3A9"/>
<path d="M45.25 58.5H42.625V61.125H45.25V58.5Z" fill="#29E3A9"/>
<path d="M42.625 58.5H40V61.125H42.625V58.5Z" fill="#29E3A9"/>
<path d="M40 58.5H37.375V61.125H40V58.5Z" fill="#29E3A9"/>
<path d="M37.375 58.5H34.75V61.125H37.375V58.5Z" fill="#29E3A9"/>
<path d="M34.75 58.5H32.125V61.125H34.75V58.5Z" fill="#29E3A9"/>
<path d="M32.125 58.5H29.5V61.125H32.125V58.5Z" fill="#29E3A9"/>
<path d="M29.5 58.5H26.875V61.125H29.5V58.5Z" fill="#29E3A9"/>
<path d="M26.875 58.5H24.25V61.125H26.875V58.5Z" fill="#29E3A9"/>
<path d="M24.25 58.5H21.625V61.125H24.25V58.5Z" fill="#29E3A9"/>
<path d="M13.75 58.5H11.125V61.125H13.75V58.5Z" fill="#29E3A9"/>
<path d="M11.125 58.5H8.5V61.125H11.125V58.5Z" fill="#29E3A9"/>
<path d="M8.5 58.5H5.875V61.125H8.5V58.5Z" fill="#29E3A9"/>
<path d="M5.875 58.5H3.25V61.125H5.875V58.5Z" fill="#29E3A9"/>
<path d="M118.75 55.875H116.125V58.5H118.75V55.875Z" fill="#29E3A9"/>
<path d="M116.125 55.875H113.5V58.5H116.125V55.875Z" fill="#29E3A9"/>
<path d="M113.5 55.875H110.875V58.5H113.5V55.875Z" fill="#29E3A9"/>
<path d="M110.875 55.875H108.25V58.5H110.875V55.875Z" fill="#29E3A9"/>
<path d="M100.375 55.875H97.75V58.5H100.375V55.875Z" fill="#29E3A9"/>
<path d="M97.75 55.875H95.125V58.5H97.75V55.875Z" fill="#29E3A9"/>
<path d="M95.125 55.875H92.5V58.5H95.125V55.875Z" fill="#29E3A9"/>
<path d="M92.5 55.875H89.875V58.5H92.5V55.875Z" fill="#29E3A9"/>
<path d="M89.875 55.875H87.25V58.5H89.875V55.875Z" fill="#29E3A9"/>
<path d="M87.25 55.875H84.625V58.5H87.25V55.875Z" fill="#29E3A9"/>
<path d="M84.625 55.875H82V58.5H84.625V55.875Z" fill="#29E3A9"/>
<path d="M82 55.875H79.375V58.5H82V55.875Z" fill="#29E3A9"/>
<path d="M79.375 55.875H76.75V58.5H79.375V55.875Z" fill="#29E3A9"/>
<path d="M76.75 55.875H74.125V58.5H76.75V55.875Z" fill="#29E3A9"/>
<path d="M74.125 55.875H71.5V58.5H74.125V55.875Z" fill="#29E3A9"/>
<path d="M71.5 55.875H68.875V58.5H71.5V55.875Z" fill="#29E3A9"/>
<path d="M68.875 55.875H66.25V58.5H68.875V55.875Z" fill="#29E3A9"/>
<path d="M66.25 55.875H63.625V58.5H66.25V55.875Z" fill="#29E3A9"/>
<path d="M63.625 55.875H61V58.5H63.625V55.875Z" fill="#80CFB6"/>
<path d="M61 55.875H58.375V58.5H61V55.875Z" fill="#80CFB6"/>
<path d="M58.375 55.875H55.75V58.5H58.375V55.875Z" fill="#29E3A9"/>
<path d="M55.75 55.875H53.125V58.5H55.75V55.875Z" fill="#29E3A9"/>
<path d="M53.125 55.875H50.5V58.5H53.125V55.875Z" fill="#29E3A9"/>
<path d="M50.5 55.875H47.875V58.5H50.5V55.875Z" fill="#29E3A9"/>
<path d="M47.875 55.875H45.25V58.5H47.875V55.875Z" fill="#29E3A9"/>
<path d="M45.25 55.875H42.625V58.5H45.25V55.875Z" fill="#29E3A9"/>
<path d="M42.625 55.875H40V58.5H42.625V55.875Z" fill="#29E3A9"/>
<path d="M40 55.875H37.375V58.5H40V55.875Z" fill="#29E3A9"/>
<path d="M37.375 55.875H34.75V58.5H37.375V55.875Z" fill="#29E3A9"/>
<path d="M34.75 55.875H32.125V58.5H34.75V55.875Z" fill="#29E3A9"/>
<path d="M32.125 55.875H29.5V58.5H32.125V55.875Z" fill="#29E3A9"/>
<path d="M29.5 55.875H26.875V58.5H29.5V55.875Z" fill="#29E3A9"/>
<path d="M26.875 55.875H24.25V58.5H26.875V55.875Z" fill="#29E3A9"/>
<path d="M24.25 55.875H21.625V58.5H24.25V55.875Z" fill="#29E3A9"/>
<path d="M13.75 55.875H11.125V58.5H13.75V55.875Z" fill="#29E3A9"/>
<path d="M11.125 55.875H8.5V58.5H11.125V55.875Z" fill="#29E3A9"/>
<path d="M8.5 55.875H5.875V58.5H8.5V55.875Z" fill="#29E3A9"/>
<path d="M5.875 55.875H3.25V58.5H5.875V55.875Z" fill="#29E3A9"/>
<path d="M118.75 53.25H116.125V55.875H118.75V53.25Z" fill="#29E3A9"/>
<path d="M116.125 53.25H113.5V55.875H116.125V53.25Z" fill="#29E3A9"/>
<path d="M113.5 53.25H110.875V55.875H113.5V53.25Z" fill="#29E3A9"/>
<path d="M110.875 53.25H108.25V55.875H110.875V53.25Z" fill="#29E3A9"/>
<path d="M100.375 53.25H97.75V55.875H100.375V53.25Z" fill="#29E3A9"/>
<path d="M97.75 53.25H95.125V55.875H97.75V53.25Z" fill="#29E3A9"/>
<path d="M95.125 53.25H92.5V55.875H95.125V53.25Z" fill="#29E3A9"/>
<path d="M92.5 53.25H89.875V55.875H92.5V53.25Z" fill="#29E3A9"/>
<path d="M89.875 53.25H87.25V55.875H89.875V53.25Z" fill="#29E3A9"/>
<path d="M87.25 53.25H84.625V55.875H87.25V53.25Z" fill="#29E3A9"/>
<path d="M84.625 53.25H82V55.875H84.625V53.25Z" fill="#29E3A9"/>
<path d="M82 53.25H79.375V55.875H82V53.25Z" fill="#29E3A9"/>
<path d="M79.375 53.25H76.75V55.875H79.375V53.25Z" fill="#BFF728"/>
<path d="M76.75 53.25H74.125V55.875H76.75V53.25Z" fill="#29E3A9"/>
<path d="M74.125 53.25H71.5V55.875H74.125V53.25Z" fill="#29E3A9"/>
<path d="M71.5 53.25H68.875V55.875H71.5V53.25Z" fill="#29E3A9"/>
<path d="M68.875 53.25H66.25V55.875H68.875V53.25Z" fill="#29E3A9"/>
<path d="M66.25 53.25H63.625V55.875H66.25V53.25Z" fill="#29E3A9"/>
<path d="M63.625 53.25H61V55.875H63.625V53.25Z" fill="#29E3A9"/>
<path d="M61 53.25H58.375V55.875H61V53.25Z" fill="#29E3A9"/>
<path d="M58.375 53.25H55.75V55.875H58.375V53.25Z" fill="#29E3A9"/>
<path d="M55.75 53.25H53.125V55.875H55.75V53.25Z" fill="#29E3A9"/>
<path d="M53.125 53.25H50.5V55.875H53.125V53.25Z" fill="#29E3A9"/>
<path d="M50.5 53.25H47.875V55.875H50.5V53.25Z" fill="#29E3A9"/>
<path d="M47.875 53.25H45.25V55.875H47.875V53.25Z" fill="#29E3A9"/>
<path d="M45.25 53.25H42.625V55.875H45.25V53.25Z" fill="#BFF728"/>
<path d="M42.625 53.25H40V55.875H42.625V53.25Z" fill="#29E3A9"/>
<path d="M40 53.25H37.375V55.875H40V53.25Z" fill="#29E3A9"/>
<path d="M37.375 53.25H34.75V55.875H37.375V53.25Z" fill="#29E3A9"/>
<path d="M34.75 53.25H32.125V55.875H34.75V53.25Z" fill="#29E3A9"/>
<path d="M32.125 53.25H29.5V55.875H32.125V53.25Z" fill="#29E3A9"/>
<path d="M29.5 53.25H26.875V55.875H29.5V53.25Z" fill="#29E3A9"/>
<path d="M26.875 53.25H24.25V55.875H26.875V53.25Z" fill="#29E3A9"/>
<path d="M24.25 53.25H21.625V55.875H24.25V53.25Z" fill="#29E3A9"/>
<path d="M13.75 53.25H11.125V55.875H13.75V53.25Z" fill="#29E3A9"/>
<path d="M11.125 53.25H8.5V55.875H11.125V53.25Z" fill="#29E3A9"/>
<path d="M8.5 53.25H5.875V55.875H8.5V53.25Z" fill="#29E3A9"/>
<path d="M5.875 53.25H3.25V55.875H5.875V53.25Z" fill="#29E3A9"/>
<path d="M118.75 50.625H116.125V53.25H118.75V50.625Z" fill="#29E3A9"/>
<path d="M116.125 50.625H113.5V53.25H116.125V50.625Z" fill="#29E3A9"/>
<path d="M113.5 50.625H110.875V53.25H113.5V50.625Z" fill="#29E3A9"/>
<path d="M110.875 50.625H108.25V53.25H110.875V50.625Z" fill="#29E3A9"/>
<path d="M100.375 50.625H97.75V53.25H100.375V50.625Z" fill="#29E3A9"/>
<path d="M97.75 50.625H95.125V53.25H97.75V50.625Z" fill="#29E3A9"/>
<path d="M95.125 50.625H92.5V53.25H95.125V50.625Z" fill="#29E3A9"/>
<path d="M92.5 50.625H89.875V53.25H92.5V50.625Z" fill="#29E3A9"/>
<path d="M89.875 50.625H87.25V53.25H89.875V50.625Z" fill="#29E3A9"/>
<path d="M87.25 50.625H84.625V53.25H87.25V50.625Z" fill="#29E3A9"/>
<path d="M84.625 50.625H82V53.25H84.625V50.625Z" fill="#29E3A9"/>
<path d="M82 50.625H79.375V53.25H82V50.625Z" fill="#BFF728"/>
<path d="M79.375 50.625H76.75V53.25H79.375V50.625Z" fill="#BFF728"/>
<path d="M76.75 50.625H74.125V53.25H76.75V50.625Z" fill="#BFF728"/>
<path d="M74.125 50.625H71.5V53.25H74.125V50.625Z" fill="#29E3A9"/>
<path d="M71.5 50.625H68.875V53.25H71.5V50.625Z" fill="#29E3A9"/>
<path d="M68.875 50.625H66.25V53.25H68.875V50.625Z" fill="#29E3A9"/>
<path d="M66.25 50.625H63.625V53.25H66.25V50.625Z" fill="#29E3A9"/>
<path d="M63.625 50.625H61V53.25H63.625V50.625Z" fill="#29E3A9"/>
<path d="M61 50.625H58.375V53.25H61V50.625Z" fill="#29E3A9"/>
<path d="M58.375 50.625H55.75V53.25H58.375V50.625Z" fill="#29E3A9"/>
<path d="M55.75 50.625H53.125V53.25H55.75V50.625Z" fill="#29E3A9"/>
<path d="M53.125 50.625H50.5V53.25H53.125V50.625Z" fill="#29E3A9"/>
<path d="M50.5 50.625H47.875V53.25H50.5V50.625Z" fill="#29E3A9"/>
<path d="M47.875 50.625H45.25V53.25H47.875V50.625Z" fill="#BFF728"/>
<path d="M45.25 50.625H42.625V53.25H45.25V50.625Z" fill="#BFF728"/>
<path d="M42.625 50.625H40V53.25H42.625V50.625Z" fill="#BFF728"/>
<path d="M40 50.625H37.375V53.25H40V50.625Z" fill="#29E3A9"/>
<path d="M37.375 50.625H34.75V53.25H37.375V50.625Z" fill="#29E3A9"/>
<path d="M34.75 50.625H32.125V53.25H34.75V50.625Z" fill="#29E3A9"/>
<path d="M32.125 50.625H29.5V53.25H32.125V50.625Z" fill="#29E3A9"/>
<path d="M29.5 50.625H26.875V53.25H29.5V50.625Z" fill="#29E3A9"/>
<path d="M26.875 50.625H24.25V53.25H26.875V50.625Z" fill="#29E3A9"/>
<path d="M24.25 50.625H21.625V53.25H24.25V50.625Z" fill="#29E3A9"/>
<path d="M13.75 50.625H11.125V53.25H13.75V50.625Z" fill="#29E3A9"/>
<path d="M11.125 50.625H8.5V53.25H11.125V50.625Z" fill="#29E3A9"/>
<path d="M8.5 50.625H5.875V53.25H8.5V50.625Z" fill="#29E3A9"/>
<path d="M5.875 50.625H3.25V53.25H5.875V50.625Z" fill="#29E3A9"/>
<path d="M118.75 48H116.125V50.625H118.75V48Z" fill="#29E3A9"/>
<path d="M121.375 69H118.75V71.625H121.375V69Z" fill="#BFF728"/>
<path d="M121.375 66.375H118.75V69H121.375V66.375Z" fill="#BFF728"/>
<path d="M121.375 63.75H118.75V66.375H121.375V63.75Z" fill="#BFF728"/>
<path d="M121.375 61.125H118.75V63.75H121.375V61.125Z" fill="#BFF728"/>
<path d="M121.375 58.5H118.75V61.125H121.375V58.5Z" fill="#BFF728"/>
<path d="M121.375 55.875H118.75V58.5H121.375V55.875Z" fill="#BFF728"/>
<path d="M121.375 53.25H118.75V55.875H121.375V53.25Z" fill="#BFF728"/>
<path d="M121.375 50.625H118.75V53.25H121.375V50.625Z" fill="#BFF728"/>
<path d="M121.375 48H118.75V50.625H121.375V48Z" fill="#BFF728"/>
<path d="M3.25 69H0.625V71.625H3.25V69Z" fill="#BFF728"/>
<path d="M3.25 66.375H0.625V69H3.25V66.375Z" fill="#BFF728"/>
<path d="M3.25 63.75H0.625V66.375H3.25V63.75Z" fill="#BFF728"/>
<path d="M3.25 61.125H0.625V63.75H3.25V61.125Z" fill="#BFF728"/>
<path d="M3.25 58.5H0.625V61.125H3.25V58.5Z" fill="#BFF728"/>
<path d="M3.25 55.875H0.625V58.5H3.25V55.875Z" fill="#BFF728"/>
<path d="M3.25 53.25H0.625V55.875H3.25V53.25Z" fill="#BFF728"/>
<path d="M3.25 50.625H0.625V53.25H3.25V50.625Z" fill="#BFF728"/>
<path d="M3.25 48H0.625V50.625H3.25V48Z" fill="#BFF728"/>
<path d="M116.125 48H113.5V50.625H116.125V48Z" fill="#29E3A9"/>
<path d="M113.5 48H110.875V50.625H113.5V48Z" fill="#29E3A9"/>
<path d="M110.875 48H108.25V50.625H110.875V48Z" fill="#29E3A9"/>
<path d="M100.375 48H97.75V50.625H100.375V48Z" fill="#29E3A9"/>
<path d="M97.75 48H95.125V50.625H97.75V48Z" fill="#29E3A9"/>
<path d="M95.125 48H92.5V50.625H95.125V48Z" fill="#29E3A9"/>
<path d="M92.5 48H89.875V50.625H92.5V48Z" fill="#29E3A9"/>
<path d="M89.875 48H87.25V50.625H89.875V48Z" fill="#29E3A9"/>
<path d="M87.25 48H84.625V50.625H87.25V48Z" fill="#29E3A9"/>
<path d="M84.625 48H82V50.625H84.625V48Z" fill="#BFF728"/>
<path d="M82 48H79.375V50.625H82V48Z" fill="#BFF728"/>
<path d="M79.375 48H76.75V50.625H79.375V48Z" fill="#BFF728"/>
<path d="M76.75 48H74.125V50.625H76.75V48Z" fill="#BFF728"/>
<path d="M74.125 48H71.5V50.625H74.125V48Z" fill="#BFF728"/>
<path d="M71.5 48H68.875V50.625H71.5V48Z" fill="#29E3A9"/>
<path d="M68.875 48H66.25V50.625H68.875V48Z" fill="#29E3A9"/>
<path d="M66.25 48H63.625V50.625H66.25V48Z" fill="#29E3A9"/>
<path d="M63.625 48H61V50.625H63.625V48Z" fill="#29E3A9"/>
<path d="M61 48H58.375V50.625H61V48Z" fill="#29E3A9"/>
<path d="M58.375 48H55.75V50.625H58.375V48Z" fill="#29E3A9"/>
<path d="M55.75 48H53.125V50.625H55.75V48Z" fill="#29E3A9"/>
<path d="M53.125 48H50.5V50.625H53.125V48Z" fill="#29E3A9"/>
<path d="M50.5 48H47.875V50.625H50.5V48Z" fill="#BFF728"/>
<path d="M47.875 48H45.25V50.625H47.875V48Z" fill="#BFF728"/>
<path d="M45.25 48H42.625V50.625H45.25V48Z" fill="#BFF728"/>
<path d="M42.625 48H40V50.625H42.625V48Z" fill="#BFF728"/>
<path d="M40 48H37.375V50.625H40V48Z" fill="#BFF728"/>
<path d="M37.375 48H34.75V50.625H37.375V48Z" fill="#29E3A9"/>
<path d="M34.75 48H32.125V50.625H34.75V48Z" fill="#29E3A9"/>
<path d="M32.125 48H29.5V50.625H32.125V48Z" fill="#29E3A9"/>
<path d="M29.5 48H26.875V50.625H29.5V48Z" fill="#29E3A9"/>
<path d="M26.875 48H24.25V50.625H26.875V48Z" fill="#29E3A9"/>
<path d="M24.25 48H21.625V50.625H24.25V48Z" fill="#29E3A9"/>
<path d="M13.75 48H11.125V50.625H13.75V48Z" fill="#29E3A9"/>
<path d="M11.125 48H8.5V50.625H11.125V48Z" fill="#29E3A9"/>
<path d="M8.5 48H5.875V50.625H8.5V48Z" fill="#29E3A9"/>
<path d="M5.875 48H3.25V50.625H5.875V48Z" fill="#29E3A9"/>
<path d="M118.75 45.375H116.125V48H118.75V45.375Z" fill="#3CD8A8"/>
<path d="M5.875 45.375H3.25V48H5.875V45.375Z" fill="#3CD8A8"/>
<path d="M5.875 71.625H3.25V74.25H5.875V71.625Z" fill="#3CD8A8"/>
<path d="M8.5 42.75H5.875V45.375H8.5V42.75Z" fill="#3CD8A8"/>
<path d="M8.5 74.25H5.875V76.875H8.5V74.25Z" fill="#3CD8A8"/>
<path d="M116.125 42.75H113.5V45.375H116.125V42.75Z" fill="#3CD8A8"/>
<path d="M116.125 45.375H113.5V48H116.125V45.375Z" fill="#29E3A9"/>
<path d="M113.5 45.375H110.875V48H113.5V45.375Z" fill="#29E3A9"/>
<path d="M110.875 45.375H108.25V48H110.875V45.375Z" fill="#29E3A9"/>
<path d="M100.375 45.375H97.75V48H100.375V45.375Z" fill="#29E3A9"/>
<path d="M97.75 45.375H95.125V48H97.75V45.375Z" fill="#29E3A9"/>
<path d="M95.125 45.375H92.5V48H95.125V45.375Z" fill="#29E3A9"/>
<path d="M92.5 45.375H89.875V48H92.5V45.375Z" fill="#29E3A9"/>
<path d="M89.875 45.375H87.25V48H89.875V45.375Z" fill="#29E3A9"/>
<path d="M87.25 45.375H84.625V48H87.25V45.375Z" fill="#29E3A9"/>
<path d="M84.625 45.375H82V48H84.625V45.375Z" fill="#BFF728"/>
<path d="M82 45.375H79.375V48H82V45.375Z" fill="#BFF728"/>
<path d="M79.375 45.375H76.75V48H79.375V45.375Z" fill="#BFF728"/>
<path d="M76.75 45.375H74.125V48H76.75V45.375Z" fill="#BFF728"/>
<path d="M74.125 45.375H71.5V48H74.125V45.375Z" fill="#BFF728"/>
<path d="M71.5 45.375H68.875V48H71.5V45.375Z" fill="#29E3A9"/>
<path d="M68.875 45.375H66.25V48H68.875V45.375Z" fill="#29E3A9"/>
<path d="M66.25 45.375H63.625V48H66.25V45.375Z" fill="#29E3A9"/>
<path d="M63.625 45.375H61V48H63.625V45.375Z" fill="#29E3A9"/>
<path d="M61 45.375H58.375V48H61V45.375Z" fill="#29E3A9"/>
<path d="M58.375 45.375H55.75V48H58.375V45.375Z" fill="#29E3A9"/>
<path d="M55.75 45.375H53.125V48H55.75V45.375Z" fill="#29E3A9"/>
<path d="M53.125 45.375H50.5V48H53.125V45.375Z" fill="#29E3A9"/>
<path d="M50.5 45.375H47.875V48H50.5V45.375Z" fill="#BFF728"/>
<path d="M47.875 45.375H45.25V48H47.875V45.375Z" fill="#BFF728"/>
<path d="M45.25 45.375H42.625V48H45.25V45.375Z" fill="#BFF728"/>
<path d="M42.625 45.375H40V48H42.625V45.375Z" fill="#BFF728"/>
<path d="M40 45.375H37.375V48H40V45.375Z" fill="#BFF728"/>
<path d="M37.375 45.375H34.75V48H37.375V45.375Z" fill="#29E3A9"/>
<path d="M34.75 45.375H32.125V48H34.75V45.375Z" fill="#29E3A9"/>
<path d="M32.125 45.375H29.5V48H32.125V45.375Z" fill="#29E3A9"/>
<path d="M29.5 45.375H26.875V48H29.5V45.375Z" fill="#29E3A9"/>
<path d="M26.875 45.375H24.25V48H26.875V45.375Z" fill="#29E3A9"/>
<path d="M24.25 45.375H21.625V48H24.25V45.375Z" fill="#29E3A9"/>
<path d="M13.75 45.375H11.125V48H13.75V45.375Z" fill="#29E3A9"/>
<path d="M11.125 45.375H8.5V48H11.125V45.375Z" fill="#29E3A9"/>
<path d="M8.5 45.375H5.875V48H8.5V45.375Z" fill="#29E3A9"/>
<path d="M113.5 42.75H110.875V45.375H113.5V42.75Z" fill="#29E3A9"/>
<path d="M110.875 42.75H108.25V45.375H110.875V42.75Z" fill="#29E3A9"/>
<path d="M100.375 42.75H97.75V45.375H100.375V42.75Z" fill="#29E3A9"/>
<path d="M97.75 42.75H95.125V45.375H97.75V42.75Z" fill="#29E3A9"/>
<path d="M95.125 42.75H92.5V45.375H95.125V42.75Z" fill="#29E3A9"/>
<path d="M92.5 42.75H89.875V45.375H92.5V42.75Z" fill="#29E3A9"/>
<path d="M89.875 42.75H87.25V45.375H89.875V42.75Z" fill="#29E3A9"/>
<path d="M87.25 42.75H84.625V45.375H87.25V42.75Z" fill="#29E3A9"/>
<path d="M84.625 42.75H82V45.375H84.625V42.75Z" fill="#29E3A9"/>
<path d="M82 42.75H79.375V45.375H82V42.75Z" fill="#BFF728"/>
<path d="M79.375 42.75H76.75V45.375H79.375V42.75Z" fill="#BFF728"/>
<path d="M76.75 42.75H74.125V45.375H76.75V42.75Z" fill="#BFF728"/>
<path d="M74.125 42.75H71.5V45.375H74.125V42.75Z" fill="#29E3A9"/>
<path d="M71.5 42.75H68.875V45.375H71.5V42.75Z" fill="#29E3A9"/>
<path d="M68.875 42.75H66.25V45.375H68.875V42.75Z" fill="#29E3A9"/>
<path d="M66.25 42.75H63.625V45.375H66.25V42.75Z" fill="#29E3A9"/>
<path d="M63.625 42.75H61V45.375H63.625V42.75Z" fill="#29E3A9"/>
<path d="M61 42.75H58.375V45.375H61V42.75Z" fill="#29E3A9"/>
<path d="M58.375 42.75H55.75V45.375H58.375V42.75Z" fill="#29E3A9"/>
<path d="M55.75 42.75H53.125V45.375H55.75V42.75Z" fill="#29E3A9"/>
<path d="M53.125 42.75H50.5V45.375H53.125V42.75Z" fill="#29E3A9"/>
<path d="M50.5 42.75H47.875V45.375H50.5V42.75Z" fill="#29E3A9"/>
<path d="M47.875 42.75H45.25V45.375H47.875V42.75Z" fill="#BFF728"/>
<path d="M45.25 42.75H42.625V45.375H45.25V42.75Z" fill="#BFF728"/>
<path d="M42.625 42.75H40V45.375H42.625V42.75Z" fill="#BFF728"/>
<path d="M40 42.75H37.375V45.375H40V42.75Z" fill="#29E3A9"/>
<path d="M37.375 42.75H34.75V45.375H37.375V42.75Z" fill="#29E3A9"/>
<path d="M34.75 42.75H32.125V45.375H34.75V42.75Z" fill="#29E3A9"/>
<path d="M32.125 42.75H29.5V45.375H32.125V42.75Z" fill="#29E3A9"/>
<path d="M29.5 42.75H26.875V45.375H29.5V42.75Z" fill="#29E3A9"/>
<path d="M26.875 42.75H24.25V45.375H26.875V42.75Z" fill="#29E3A9"/>
<path d="M24.25 42.75H21.625V45.375H24.25V42.75Z" fill="#29E3A9"/>
<path d="M13.75 42.75H11.125V45.375H13.75V42.75Z" fill="#29E3A9"/>
<path d="M11.125 42.75H8.5V45.375H11.125V42.75Z" fill="#29E3A9"/>
<path d="M100.375 40.125H97.75V42.75H100.375V40.125Z" fill="#29E3A9"/>
<path d="M97.75 40.125H95.125V42.75H97.75V40.125Z" fill="#29E3A9"/>
<path d="M95.125 40.125H92.5V42.75H95.125V40.125Z" fill="#29E3A9"/>
<path d="M92.5 40.125H89.875V42.75H92.5V40.125Z" fill="#29E3A9"/>
<path d="M89.875 40.125H87.25V42.75H89.875V40.125Z" fill="#29E3A9"/>
<path d="M87.25 40.125H84.625V42.75H87.25V40.125Z" fill="#29E3A9"/>
<path d="M84.625 40.125H82V42.75H84.625V40.125Z" fill="#29E3A9"/>
<path d="M82 40.125H79.375V42.75H82V40.125Z" fill="#29E3A9"/>
<path d="M79.375 40.125H76.75V42.75H79.375V40.125Z" fill="#BFF728"/>
<path d="M76.75 40.125H74.125V42.75H76.75V40.125Z" fill="#29E3A9"/>
<path d="M74.125 40.125H71.5V42.75H74.125V40.125Z" fill="#29E3A9"/>
<path d="M71.5 40.125H68.875V42.75H71.5V40.125Z" fill="#29E3A9"/>
<path d="M68.875 40.125H66.25V42.75H68.875V40.125Z" fill="#29E3A9"/>
<path d="M66.25 40.125H63.625V42.75H66.25V40.125Z" fill="#29E3A9"/>
<path d="M63.625 40.125H61V42.75H63.625V40.125Z" fill="#29E3A9"/>
<path d="M61 40.125H58.375V42.75H61V40.125Z" fill="#29E3A9"/>
<path d="M58.375 40.125H55.75V42.75H58.375V40.125Z" fill="#29E3A9"/>
<path d="M55.75 40.125H53.125V42.75H55.75V40.125Z" fill="#29E3A9"/>
<path d="M53.125 40.125H50.5V42.75H53.125V40.125Z" fill="#29E3A9"/>
<path d="M50.5 40.125H47.875V42.75H50.5V40.125Z" fill="#29E3A9"/>
<path d="M47.875 40.125H45.25V42.75H47.875V40.125Z" fill="#29E3A9"/>
<path d="M45.25 40.125H42.625V42.75H45.25V40.125Z" fill="#BFF728"/>
<path d="M42.625 40.125H40V42.75H42.625V40.125Z" fill="#29E3A9"/>
<path d="M40 40.125H37.375V42.75H40V40.125Z" fill="#29E3A9"/>
<path d="M37.375 40.125H34.75V42.75H37.375V40.125Z" fill="#29E3A9"/>
<path d="M34.75 40.125H32.125V42.75H34.75V40.125Z" fill="#29E3A9"/>
<path d="M32.125 40.125H29.5V42.75H32.125V40.125Z" fill="#29E3A9"/>
<path d="M29.5 40.125H26.875V42.75H29.5V40.125Z" fill="#29E3A9"/>
<path d="M26.875 40.125H24.25V42.75H26.875V40.125Z" fill="#29E3A9"/>
<path d="M24.25 40.125H21.625V42.75H24.25V40.125Z" fill="#29E3A9"/>
<path d="M100.375 37.5H97.75V40.125H100.375V37.5Z" fill="#29E3A9"/>
<path d="M97.75 37.5H95.125V40.125H97.75V37.5Z" fill="#29E3A9"/>
<path d="M95.125 37.5H92.5V40.125H95.125V37.5Z" fill="#29E3A9"/>
<path d="M92.5 37.5H89.875V40.125H92.5V37.5Z" fill="#29E3A9"/>
<path d="M89.875 37.5H87.25V40.125H89.875V37.5Z" fill="#29E3A9"/>
<path d="M87.25 37.5H84.625V40.125H87.25V37.5Z" fill="#29E3A9"/>
<path d="M84.625 37.5H82V40.125H84.625V37.5Z" fill="#29E3A9"/>
<path d="M82 37.5H79.375V40.125H82V37.5Z" fill="#29E3A9"/>
<path d="M79.375 37.5H76.75V40.125H79.375V37.5Z" fill="#29E3A9"/>
<path d="M76.75 37.5H74.125V40.125H76.75V37.5Z" fill="#29E3A9"/>
<path d="M74.125 37.5H71.5V40.125H74.125V37.5Z" fill="#29E3A9"/>
<path d="M71.5 37.5H68.875V40.125H71.5V37.5Z" fill="#29E3A9"/>
<path d="M68.875 37.5H66.25V40.125H68.875V37.5Z" fill="#29E3A9"/>
<path d="M66.25 37.5H63.625V40.125H66.25V37.5Z" fill="#29E3A9"/>
<path d="M63.625 37.5H61V40.125H63.625V37.5Z" fill="#29E3A9"/>
<path d="M61 37.5H58.375V40.125H61V37.5Z" fill="#29E3A9"/>
<path d="M58.375 37.5H55.75V40.125H58.375V37.5Z" fill="#29E3A9"/>
<path d="M55.75 37.5H53.125V40.125H55.75V37.5Z" fill="#29E3A9"/>
<path d="M53.125 37.5H50.5V40.125H53.125V37.5Z" fill="#29E3A9"/>
<path d="M50.5 37.5H47.875V40.125H50.5V37.5Z" fill="#29E3A9"/>
<path d="M47.875 37.5H45.25V40.125H47.875V37.5Z" fill="#29E3A9"/>
<path d="M45.25 37.5H42.625V40.125H45.25V37.5Z" fill="#29E3A9"/>
<path d="M42.625 37.5H40V40.125H42.625V37.5Z" fill="#29E3A9"/>
<path d="M40 37.5H37.375V40.125H40V37.5Z" fill="#29E3A9"/>
<path d="M37.375 37.5H34.75V40.125H37.375V37.5Z" fill="#29E3A9"/>
<path d="M34.75 37.5H32.125V40.125H34.75V37.5Z" fill="#29E3A9"/>
<path d="M32.125 37.5H29.5V40.125H32.125V37.5Z" fill="#29E3A9"/>
<path d="M29.5 37.5H26.875V40.125H29.5V37.5Z" fill="#29E3A9"/>
<path d="M26.875 37.5H24.25V40.125H26.875V37.5Z" fill="#29E3A9"/>
<path d="M24.25 37.5H21.625V40.125H24.25V37.5Z" fill="#29E3A9"/>
<path d="M100.375 34.875H97.75V37.5H100.375V34.875Z" fill="#29E3A9"/>
<path d="M97.75 34.875H95.125V37.5H97.75V34.875Z" fill="#29E3A9"/>
<path d="M95.125 34.875H92.5V37.5H95.125V34.875Z" fill="#29E3A9"/>
<path d="M92.5 34.875H89.875V37.5H92.5V34.875Z" fill="#29E3A9"/>
<path d="M89.875 34.875H87.25V37.5H89.875V34.875Z" fill="#29E3A9"/>
<path d="M87.25 34.875H84.625V37.5H87.25V34.875Z" fill="#29E3A9"/>
<path d="M84.625 34.875H82V37.5H84.625V34.875Z" fill="#29E3A9"/>
<path d="M82 34.875H79.375V37.5H82V34.875Z" fill="#29E3A9"/>
<path d="M79.375 34.875H76.75V37.5H79.375V34.875Z" fill="#29E3A9"/>
<path d="M76.75 34.875H74.125V37.5H76.75V34.875Z" fill="#29E3A9"/>
<path d="M74.125 34.875H71.5V37.5H74.125V34.875Z" fill="#29E3A9"/>
<path d="M71.5 34.875H68.875V37.5H71.5V34.875Z" fill="#29E3A9"/>
<path d="M68.875 34.875H66.25V37.5H68.875V34.875Z" fill="#29E3A9"/>
<path d="M66.25 34.875H63.625V37.5H66.25V34.875Z" fill="#29E3A9"/>
<path d="M63.625 34.875H61V37.5H63.625V34.875Z" fill="#29E3A9"/>
<path d="M61 34.875H58.375V37.5H61V34.875Z" fill="#29E3A9"/>
<path d="M58.375 34.875H55.75V37.5H58.375V34.875Z" fill="#29E3A9"/>
<path d="M55.75 34.875H53.125V37.5H55.75V34.875Z" fill="#29E3A9"/>
<path d="M53.125 34.875H50.5V37.5H53.125V34.875Z" fill="#29E3A9"/>
<path d="M50.5 34.875H47.875V37.5H50.5V34.875Z" fill="#29E3A9"/>
<path d="M47.875 34.875H45.25V37.5H47.875V34.875Z" fill="#29E3A9"/>
<path d="M45.25 34.875H42.625V37.5H45.25V34.875Z" fill="#29E3A9"/>
<path d="M42.625 34.875H40V37.5H42.625V34.875Z" fill="#29E3A9"/>
<path d="M40 34.875H37.375V37.5H40V34.875Z" fill="#29E3A9"/>
<path d="M37.375 34.875H34.75V37.5H37.375V34.875Z" fill="#29E3A9"/>
<path d="M34.75 34.875H32.125V37.5H34.75V34.875Z" fill="#29E3A9"/>
<path d="M32.125 34.875H29.5V37.5H32.125V34.875Z" fill="#29E3A9"/>
<path d="M29.5 34.875H26.875V37.5H29.5V34.875Z" fill="#29E3A9"/>
<path d="M26.875 34.875H24.25V37.5H26.875V34.875Z" fill="#29E3A9"/>
<path d="M24.25 34.875H21.625V37.5H24.25V34.875Z" fill="#29E3A9"/>
<path d="M100.375 32.25H97.75V34.875H100.375V32.25Z" fill="#29E3A9"/>
<path d="M97.75 32.25H95.125V34.875H97.75V32.25Z" fill="#29E3A9"/>
<path d="M95.125 32.25H92.5V34.875H95.125V32.25Z" fill="#29E3A9"/>
<path d="M92.5 32.25H89.875V34.875H92.5V32.25Z" fill="#29E3A9"/>
<path d="M89.875 32.25H87.25V34.875H89.875V32.25Z" fill="#29E3A9"/>
<path d="M87.25 32.25H84.625V34.875H87.25V32.25Z" fill="#29E3A9"/>
<path d="M84.625 32.25H82V34.875H84.625V32.25Z" fill="#29E3A9"/>
<path d="M82 32.25H79.375V34.875H82V32.25Z" fill="#29E3A9"/>
<path d="M79.375 32.25H76.75V34.875H79.375V32.25Z" fill="#29E3A9"/>
<path d="M76.75 32.25H74.125V34.875H76.75V32.25Z" fill="#29E3A9"/>
<path d="M74.125 32.25H71.5V34.875H74.125V32.25Z" fill="#29E3A9"/>
<path d="M71.5 32.25H68.875V34.875H71.5V32.25Z" fill="#29E3A9"/>
<path d="M68.875 32.25H66.25V34.875H68.875V32.25Z" fill="#29E3A9"/>
<path d="M66.25 32.25H63.625V34.875H66.25V32.25Z" fill="#29E3A9"/>
<path d="M63.625 32.25H61V34.875H63.625V32.25Z" fill="#29E3A9"/>
<path d="M61 32.25H58.375V34.875H61V32.25Z" fill="#29E3A9"/>
<path d="M58.375 32.25H55.75V34.875H58.375V32.25Z" fill="#29E3A9"/>
<path d="M55.75 32.25H53.125V34.875H55.75V32.25Z" fill="#29E3A9"/>
<path d="M53.125 32.25H50.5V34.875H53.125V32.25Z" fill="#29E3A9"/>
<path d="M50.5 32.25H47.875V34.875H50.5V32.25Z" fill="#29E3A9"/>
<path d="M47.875 32.25H45.25V34.875H47.875V32.25Z" fill="#29E3A9"/>
<path d="M45.25 32.25H42.625V34.875H45.25V32.25Z" fill="#29E3A9"/>
<path d="M42.625 32.25H40V34.875H42.625V32.25Z" fill="#29E3A9"/>
<path d="M40 32.25H37.375V34.875H40V32.25Z" fill="#29E3A9"/>
<path d="M37.375 32.25H34.75V34.875H37.375V32.25Z" fill="#29E3A9"/>
<path d="M34.75 32.25H32.125V34.875H34.75V32.25Z" fill="#29E3A9"/>
<path d="M32.125 32.25H29.5V34.875H32.125V32.25Z" fill="#29E3A9"/>
<path d="M29.5 32.25H26.875V34.875H29.5V32.25Z" fill="#29E3A9"/>
<path d="M26.875 32.25H24.25V34.875H26.875V32.25Z" fill="#29E3A9"/>
<path d="M24.25 32.25H21.625V34.875H24.25V32.25Z" fill="#29E3A9"/>
<path d="M100.375 29.625H97.75V32.25H100.375V29.625Z" fill="#29E3A9"/>
<path d="M97.75 29.625H95.125V32.25H97.75V29.625Z" fill="#29E3A9"/>
<path d="M95.125 29.625H92.5V32.25H95.125V29.625Z" fill="#29E3A9"/>
<path d="M92.5 29.625H89.875V32.25H92.5V29.625Z" fill="#29E3A9"/>
<path d="M89.875 29.625H87.25V32.25H89.875V29.625Z" fill="#29E3A9"/>
<path d="M87.25 29.625H84.625V32.25H87.25V29.625Z" fill="#29E3A9"/>
<path d="M84.625 29.625H82V32.25H84.625V29.625Z" fill="#29E3A9"/>
<path d="M82 29.625H79.375V32.25H82V29.625Z" fill="#29E3A9"/>
<path d="M79.375 29.625H76.75V32.25H79.375V29.625Z" fill="#29E3A9"/>
<path d="M76.75 29.625H74.125V32.25H76.75V29.625Z" fill="#29E3A9"/>
<path d="M74.125 29.625H71.5V32.25H74.125V29.625Z" fill="#29E3A9"/>
<path d="M71.5 29.625H68.875V32.25H71.5V29.625Z" fill="#29E3A9"/>
<path d="M68.875 29.625H66.25V32.25H68.875V29.625Z" fill="#29E3A9"/>
<path d="M66.25 29.625H63.625V32.25H66.25V29.625Z" fill="#29E3A9"/>
<path d="M63.625 29.625H61V32.25H63.625V29.625Z" fill="#29E3A9"/>
<path d="M61 29.625H58.375V32.25H61V29.625Z" fill="#29E3A9"/>
<path d="M58.375 29.625H55.75V32.25H58.375V29.625Z" fill="#29E3A9"/>
<path d="M55.75 29.625H53.125V32.25H55.75V29.625Z" fill="#29E3A9"/>
<path d="M53.125 29.625H50.5V32.25H53.125V29.625Z" fill="#29E3A9"/>
<path d="M50.5 29.625H47.875V32.25H50.5V29.625Z" fill="#29E3A9"/>
<path d="M47.875 29.625H45.25V32.25H47.875V29.625Z" fill="#29E3A9"/>
<path d="M45.25 29.625H42.625V32.25H45.25V29.625Z" fill="#29E3A9"/>
<path d="M42.625 29.625H40V32.25H42.625V29.625Z" fill="#29E3A9"/>
<path d="M40 29.625H37.375V32.25H40V29.625Z" fill="#29E3A9"/>
<path d="M37.375 29.625H34.75V32.25H37.375V29.625Z" fill="#29E3A9"/>
<path d="M34.75 29.625H32.125V32.25H34.75V29.625Z" fill="#29E3A9"/>
<path d="M32.125 29.625H29.5V32.25H32.125V29.625Z" fill="#29E3A9"/>
<path d="M29.5 29.625H26.875V32.25H29.5V29.625Z" fill="#29E3A9"/>
<path d="M26.875 29.625H24.25V32.25H26.875V29.625Z" fill="#29E3A9"/>
<path d="M24.25 29.625H21.625V32.25H24.25V29.625Z" fill="#29E3A9"/>
<path d="M103 82.125H100.375V84.75H103V82.125Z" fill="#80CFB6"/>
<path d="M103 79.5H100.375V82.125H103V79.5Z" fill="#80CFB6"/>
<path d="M103 76.875H100.375V79.5H103V76.875Z" fill="#80CFB6"/>
<path d="M103 74.25H100.375V76.875H103V74.25Z" fill="#80CFB6"/>
<path d="M103 71.625H100.375V74.25H103V71.625Z" fill="#80CFB6"/>
<path d="M103 69H100.375V71.625H103V69Z" fill="#80CFB6"/>
<path d="M103 66.375H100.375V69H103V66.375Z" fill="#80CFB6"/>
<path d="M103 63.75H100.375V66.375H103V63.75Z" fill="#80CFB6"/>
<path d="M103 61.125H100.375V63.75H103V61.125Z" fill="#80CFB6"/>
<path d="M103 58.5H100.375V61.125H103V58.5Z" fill="#80CFB6"/>
<path d="M103 55.875H100.375V58.5H103V55.875Z" fill="#80CFB6"/>
<path d="M103 53.25H100.375V55.875H103V53.25Z" fill="#80CFB6"/>
<path d="M103 50.625H100.375V53.25H103V50.625Z" fill="#80CFB6"/>
<path d="M103 48H100.375V50.625H103V48Z" fill="#80CFB6"/>
<path d="M103 45.375H100.375V48H103V45.375Z" fill="#80CFB6"/>
<path d="M103 42.75H100.375V45.375H103V42.75Z" fill="#80CFB6"/>
<path d="M103 40.125H100.375V42.75H103V40.125Z" fill="#80CFB6"/>
<path d="M103 37.5H100.375V40.125H103V37.5Z" fill="#80CFB6"/>
<path d="M103 34.875H100.375V37.5H103V34.875Z" fill="#80CFB6"/>
<path d="M103 32.25H100.375V34.875H103V32.25Z" fill="#80CFB6"/>
<path d="M103 29.625H100.375V32.25H103V29.625Z" fill="#80CFB6"/>
<path d="M103 27H100.375V29.625H103V27Z" fill="#80CFB6"/>
<path d="M21.625 82.125H19V84.75H21.625V82.125Z" fill="#80CFB6"/>
<path d="M21.625 84.75H19V87.375H21.625V84.75Z" fill="#80CFB6"/>
<path d="M21.625 79.5H19V82.125H21.625V79.5Z" fill="#80CFB6"/>
<path d="M21.625 76.875H19V79.5H21.625V76.875Z" fill="#80CFB6"/>
<path d="M21.625 74.25H19V76.875H21.625V74.25Z" fill="#80CFB6"/>
<path d="M21.625 71.625H19V74.25H21.625V71.625Z" fill="#80CFB6"/>
<path d="M21.625 69H19V71.625H21.625V69Z" fill="#80CFB6"/>
<path d="M21.625 66.375H19V69H21.625V66.375Z" fill="#80CFB6"/>
<path d="M21.625 63.75H19V66.375H21.625V63.75Z" fill="#80CFB6"/>
<path d="M21.625 61.125H19V63.75H21.625V61.125Z" fill="#80CFB6"/>
<path d="M21.625 58.5H19V61.125H21.625V58.5Z" fill="#80CFB6"/>
<path d="M21.625 55.875H19V58.5H21.625V55.875Z" fill="#80CFB6"/>
<path d="M21.625 53.25H19V55.875H21.625V53.25Z" fill="#80CFB6"/>
<path d="M21.625 50.625H19V53.25H21.625V50.625Z" fill="#80CFB6"/>
<path d="M21.625 48H19V50.625H21.625V48Z" fill="#80CFB6"/>
<path d="M21.625 45.375H19V48H21.625V45.375Z" fill="#80CFB6"/>
<path d="M21.625 42.75H19V45.375H21.625V42.75Z" fill="#80CFB6"/>
<path d="M21.625 40.125H19V42.75H21.625V40.125Z" fill="#80CFB6"/>
<path d="M21.625 37.5H19V40.125H21.625V37.5Z" fill="#80CFB6"/>
<path d="M21.625 34.875H19V37.5H21.625V34.875Z" fill="#80CFB6"/>
<path d="M21.625 32.25H19V34.875H21.625V32.25Z" fill="#80CFB6"/>
<path d="M21.625 29.625H19V32.25H21.625V29.625Z" fill="#80CFB6"/>
<path d="M21.625 27H19V29.625H21.625V27Z" fill="#80CFB6"/>
<path d="M100.375 27H97.75V29.625H100.375V27Z" fill="#29E3A9"/>
<path d="M97.75 27H95.125V29.625H97.75V27Z" fill="#29E3A9"/>
<path d="M95.125 27H92.5V29.625H95.125V27Z" fill="#29E3A9"/>
<path d="M92.5 27H89.875V29.625H92.5V27Z" fill="#29E3A9"/>
<path d="M89.875 27H87.25V29.625H89.875V27Z" fill="#29E3A9"/>
<path d="M87.25 27H84.625V29.625H87.25V27Z" fill="#29E3A9"/>
<path d="M84.625 27H82V29.625H84.625V27Z" fill="#29E3A9"/>
<path d="M82 27H79.375V29.625H82V27Z" fill="#29E3A9"/>
<path d="M79.375 27H76.75V29.625H79.375V27Z" fill="#29E3A9"/>
<path d="M76.75 27H74.125V29.625H76.75V27Z" fill="#29E3A9"/>
<path d="M74.125 27H71.5V29.625H74.125V27Z" fill="#29E3A9"/>
<path d="M71.5 27H68.875V29.625H71.5V27Z" fill="#29E3A9"/>
<path d="M68.875 27H66.25V29.625H68.875V27Z" fill="#29E3A9"/>
<path d="M66.25 27H63.625V29.625H66.25V27Z" fill="#29E3A9"/>
<path d="M63.625 27H61V29.625H63.625V27Z" fill="#29E3A9"/>
<path d="M61 27H58.375V29.625H61V27Z" fill="#29E3A9"/>
<path d="M58.375 27H55.75V29.625H58.375V27Z" fill="#29E3A9"/>
<path d="M55.75 27H53.125V29.625H55.75V27Z" fill="#29E3A9"/>
<path d="M53.125 27H50.5V29.625H53.125V27Z" fill="#29E3A9"/>
<path d="M50.5 27H47.875V29.625H50.5V27Z" fill="#29E3A9"/>
<path d="M47.875 27H45.25V29.625H47.875V27Z" fill="#29E3A9"/>
<path d="M45.25 27H42.625V29.625H45.25V27Z" fill="#29E3A9"/>
<path d="M42.625 27H40V29.625H42.625V27Z" fill="#29E3A9"/>
<path d="M40 27H37.375V29.625H40V27Z" fill="#29E3A9"/>
<path d="M37.375 27H34.75V29.625H37.375V27Z" fill="#29E3A9"/>
<path d="M34.75 27H32.125V29.625H34.75V27Z" fill="#29E3A9"/>
<path d="M32.125 27H29.5V29.625H32.125V27Z" fill="#29E3A9"/>
<path d="M29.5 27H26.875V29.625H29.5V27Z" fill="#29E3A9"/>
<path d="M26.875 27H24.25V29.625H26.875V27Z" fill="#29E3A9"/>
<path d="M24.25 27H21.625V29.625H24.25V27Z" fill="#29E3A9"/>
<path d="M100.375 24.375H97.75V27H100.375V24.375Z" fill="#5CD5AF"/>
<path d="M97.75 24.375H95.125V27H97.75V24.375Z" fill="#29E3A9"/>
<path d="M95.125 24.375H92.5V27H95.125V24.375Z" fill="#29E3A9"/>
<path d="M92.5 24.375H89.875V27H92.5V24.375Z" fill="#29E3A9"/>
<path d="M89.875 24.375H87.25V27H89.875V24.375Z" fill="#29E3A9"/>
<path d="M87.25 24.375H84.625V27H87.25V24.375Z" fill="#29E3A9"/>
<path d="M84.625 24.375H82V27H84.625V24.375Z" fill="#29E3A9"/>
<path d="M82 24.375H79.375V27H82V24.375Z" fill="#29E3A9"/>
<path d="M79.375 24.375H76.75V27H79.375V24.375Z" fill="#29E3A9"/>
<path d="M76.75 24.375H74.125V27H76.75V24.375Z" fill="#29E3A9"/>
<path d="M74.125 24.375H71.5V27H74.125V24.375Z" fill="#29E3A9"/>
<path d="M71.5 24.375H68.875V27H71.5V24.375Z" fill="#29E3A9"/>
<path d="M68.875 24.375H66.25V27H68.875V24.375Z" fill="#29E3A9"/>
<path d="M66.25 24.375H63.625V27H66.25V24.375Z" fill="#29E3A9"/>
<path d="M63.625 24.375H61V27H63.625V24.375Z" fill="#29E3A9"/>
<path d="M61 24.375H58.375V27H61V24.375Z" fill="#29E3A9"/>
<path d="M58.375 24.375H55.75V27H58.375V24.375Z" fill="#29E3A9"/>
<path d="M55.75 24.375H53.125V27H55.75V24.375Z" fill="#29E3A9"/>
<path d="M53.125 24.375H50.5V27H53.125V24.375Z" fill="#29E3A9"/>
<path d="M50.5 24.375H47.875V27H50.5V24.375Z" fill="#29E3A9"/>
<path d="M47.875 24.375H45.25V27H47.875V24.375Z" fill="#29E3A9"/>
<path d="M45.25 24.375H42.625V27H45.25V24.375Z" fill="#29E3A9"/>
<path d="M42.625 24.375H40V27H42.625V24.375Z" fill="#29E3A9"/>
<path d="M40 24.375H37.375V27H40V24.375Z" fill="#29E3A9"/>
<path d="M37.375 24.375H34.75V27H37.375V24.375Z" fill="#29E3A9"/>
<path d="M34.75 24.375H32.125V27H34.75V24.375Z" fill="#29E3A9"/>
<path d="M32.125 24.375H29.5V27H32.125V24.375Z" fill="#29E3A9"/>
<path d="M29.5 24.375H26.875V27H29.5V24.375Z" fill="#29E3A9"/>
<path d="M26.875 24.375H24.25V27H26.875V24.375Z" fill="#29E3A9"/>
<path d="M24.25 24.375H21.625V27H24.25V24.375Z" fill="#5CD5AF"/>
<path d="M24.25 87.375H21.625V90H24.25V87.375Z" fill="#5CD5AF"/>
<path d="M100.375 87.375H97.75V90H100.375V87.375Z" fill="#5CD5AF"/>
<path d="M97.75 90H95.125V92.625H97.75V90Z" fill="#5CD5AF"/>
<path d="M95.125 92.625H92.5V95.25H95.125V92.625Z" fill="#5CD5AF"/>
<path d="M26.875 90H24.25V92.625H26.875V90Z" fill="#5CD5AF"/>
<path d="M29.5 92.625H26.875V95.25H29.5V92.625Z" fill="#5CD5AF"/>
<path d="M97.75 21.75H95.125V24.375H97.75V21.75Z" fill="#5CD5AF"/>
<path d="M95.125 21.75H92.5V24.375H95.125V21.75Z" fill="#29E3A9"/>
<path d="M92.5 21.75H89.875V24.375H92.5V21.75Z" fill="#29E3A9"/>
<path d="M89.875 21.75H87.25V24.375H89.875V21.75Z" fill="#29E3A9"/>
<path d="M87.25 21.75H84.625V24.375H87.25V21.75Z" fill="#29E3A9"/>
<path d="M84.625 21.75H82V24.375H84.625V21.75Z" fill="#29E3A9"/>
<path d="M82 21.75H79.375V24.375H82V21.75Z" fill="#29E3A9"/>
<path d="M79.375 21.75H76.75V24.375H79.375V21.75Z" fill="#29E3A9"/>
<path d="M76.75 21.75H74.125V24.375H76.75V21.75Z" fill="#29E3A9"/>
<path d="M74.125 21.75H71.5V24.375H74.125V21.75Z" fill="#29E3A9"/>
<path d="M71.5 21.75H68.875V24.375H71.5V21.75Z" fill="#29E3A9"/>
<path d="M68.875 21.75H66.25V24.375H68.875V21.75Z" fill="#29E3A9"/>
<path d="M66.25 21.75H63.625V24.375H66.25V21.75Z" fill="#29E3A9"/>
<path d="M63.625 21.75H61V24.375H63.625V21.75Z" fill="#29E3A9"/>
<path d="M61 21.75H58.375V24.375H61V21.75Z" fill="#29E3A9"/>
<path d="M58.375 21.75H55.75V24.375H58.375V21.75Z" fill="#29E3A9"/>
<path d="M55.75 21.75H53.125V24.375H55.75V21.75Z" fill="#29E3A9"/>
<path d="M53.125 21.75H50.5V24.375H53.125V21.75Z" fill="#29E3A9"/>
<path d="M50.5 21.75H47.875V24.375H50.5V21.75Z" fill="#29E3A9"/>
<path d="M47.875 21.75H45.25V24.375H47.875V21.75Z" fill="#29E3A9"/>
<path d="M45.25 21.75H42.625V24.375H45.25V21.75Z" fill="#29E3A9"/>
<path d="M42.625 21.75H40V24.375H42.625V21.75Z" fill="#29E3A9"/>
<path d="M40 21.75H37.375V24.375H40V21.75Z" fill="#29E3A9"/>
<path d="M37.375 21.75H34.75V24.375H37.375V21.75Z" fill="#29E3A9"/>
<path d="M34.75 21.75H32.125V24.375H34.75V21.75Z" fill="#29E3A9"/>
<path d="M32.125 21.75H29.5V24.375H32.125V21.75Z" fill="#29E3A9"/>
<path d="M29.5 21.75H26.875V24.375H29.5V21.75Z" fill="#29E3A9"/>
<path d="M26.875 21.75H24.25V24.375H26.875V21.75Z" fill="#5CD5AF"/>
<path d="M95.125 19.125H92.5V21.75H95.125V19.125Z" fill="#5CD5AF"/>
<path d="M92.5 19.125H89.875V21.75H92.5V19.125Z" fill="#29E3A9"/>
<path d="M89.875 19.125H87.25V21.75H89.875V19.125Z" fill="#29E3A9"/>
<path d="M87.25 19.125H84.625V21.75H87.25V19.125Z" fill="#29E3A9"/>
<path d="M84.625 19.125H82V21.75H84.625V19.125Z" fill="#29E3A9"/>
<path d="M82 19.125H79.375V21.75H82V19.125Z" fill="#29E3A9"/>
<path d="M79.375 19.125H76.75V21.75H79.375V19.125Z" fill="#29E3A9"/>
<path d="M76.75 19.125H74.125V21.75H76.75V19.125Z" fill="#29E3A9"/>
<path d="M74.125 19.125H71.5V21.75H74.125V19.125Z" fill="#29E3A9"/>
<path d="M71.5 19.125H68.875V21.75H71.5V19.125Z" fill="#29E3A9"/>
<path d="M68.875 19.125H66.25V21.75H68.875V19.125Z" fill="#29E3A9"/>
<path d="M66.25 19.125H63.625V21.75H66.25V19.125Z" fill="#29E3A9"/>
<path d="M63.625 19.125H61V21.75H63.625V19.125Z" fill="#29E3A9"/>
<path d="M61 19.125H58.375V21.75H61V19.125Z" fill="#29E3A9"/>
<path d="M58.375 19.125H55.75V21.75H58.375V19.125Z" fill="#29E3A9"/>
<path d="M55.75 19.125H53.125V21.75H55.75V19.125Z" fill="#29E3A9"/>
<path d="M53.125 19.125H50.5V21.75H53.125V19.125Z" fill="#29E3A9"/>
<path d="M50.5 19.125H47.875V21.75H50.5V19.125Z" fill="#29E3A9"/>
<path d="M47.875 19.125H45.25V21.75H47.875V19.125Z" fill="#29E3A9"/>
<path d="M45.25 19.125H42.625V21.75H45.25V19.125Z" fill="#29E3A9"/>
<path d="M42.625 19.125H40V21.75H42.625V19.125Z" fill="#29E3A9"/>
<path d="M40 19.125H37.375V21.75H40V19.125Z" fill="#29E3A9"/>
<path d="M37.375 19.125H34.75V21.75H37.375V19.125Z" fill="#29E3A9"/>
<path d="M34.75 19.125H32.125V21.75H34.75V19.125Z" fill="#29E3A9"/>
<path d="M32.125 19.125H29.5V21.75H32.125V19.125Z" fill="#29E3A9"/>
<path d="M29.5 19.125H26.875V21.75H29.5V19.125Z" fill="#5CD5AF"/>
<path d="M66.25 16.5H63.625V19.125H66.25V16.5Z" fill="#29E3A9"/>
<path d="M63.625 16.5H61V19.125H63.625V16.5Z" fill="#29E3A9"/>
<path d="M61 16.5H58.375V19.125H61V16.5Z" fill="#29E3A9"/>
<path d="M58.375 16.5H55.75V19.125H58.375V16.5Z" fill="#29E3A9"/>
<path d="M63.625 13.875H61V16.5H63.625V13.875Z" fill="#29E3A9"/>
<path d="M61 13.875H58.375V16.5H61V13.875Z" fill="#29E3A9"/>
<path d="M63.625 11.25H61V13.875H63.625V11.25Z" fill="#29E3A9"/>
<path d="M61 11.25H58.375V13.875H61V11.25Z" fill="#29E3A9"/>
<path d="M63.625 8.625H61V11.25H63.625V8.625Z" fill="#29E3A9"/>
<path d="M61 8.625H58.375V11.25H61V8.625Z" fill="#29E3A9"/>
<path d="M63.625 6H61V8.625H63.625V6Z" fill="#29E3A9"/>
<path d="M61 6H58.375V8.625H61V6Z" fill="#29E3A9"/>
<path d="M66.25 0.75H63.625V3.375H66.25V0.75Z" fill="#BFF728"/>
<path d="M63.625 3.375H61V6H63.625V3.375Z" fill="#BFF728"/>
<path d="M61 3.375H58.375V6H61V3.375Z" fill="#BFF728"/>
<path d="M58.375 0.75H55.75V3.375H58.375V0.75Z" fill="#BFF728"/>
<path d="M63.625 0.75H61V3.375H63.625V0.75Z" fill="#BFF728"/>
<path d="M61 0.75H58.375V3.375H61V0.75Z" fill="#BFF728"/>
<path d="M47.875 16.5H45.25V19.125H47.875V16.5Z" fill="#29E3A9"/>
<path d="M45.25 16.5H42.625V19.125H45.25V16.5Z" fill="#29E3A9"/>
<path d="M42.625 16.5H40V19.125H42.625V16.5Z" fill="#29E3A9"/>
<path d="M40 16.5H37.375V19.125H40V16.5Z" fill="#29E3A9"/>
<path d="M45.25 13.875H42.625V16.5H45.25V13.875Z" fill="#29E3A9"/>
<path d="M42.625 13.875H40V16.5H42.625V13.875Z" fill="#29E3A9"/>
<path d="M45.25 11.25H42.625V13.875H45.25V11.25Z" fill="#29E3A9"/>
<path d="M42.625 11.25H40V13.875H42.625V11.25Z" fill="#29E3A9"/>
<path d="M45.25 8.625H42.625V11.25H45.25V8.625Z" fill="#29E3A9"/>
<path d="M42.625 8.625H40V11.25H42.625V8.625Z" fill="#29E3A9"/>
<path d="M45.25 6H42.625V8.625H45.25V6Z" fill="#29E3A9"/>
<path d="M42.625 6H40V8.625H42.625V6Z" fill="#29E3A9"/>
<path d="M47.875 0.75H45.25V3.375H47.875V0.75Z" fill="#BFF728"/>
<path d="M45.25 3.375H42.625V6H45.25V3.375Z" fill="#BFF728"/>
<path d="M42.625 3.375H40V6H42.625V3.375Z" fill="#BFF728"/>
<path d="M40 0.75H37.375V3.375H40V0.75Z" fill="#BFF728"/>
<path d="M45.25 0.75H42.625V3.375H45.25V0.75Z" fill="#BFF728"/>
<path d="M42.625 0.75H40V3.375H42.625V0.75Z" fill="#BFF728"/>
<path d="M84.625 16.5H82V19.125H84.625V16.5Z" fill="#29E3A9"/>
<path d="M82 16.5H79.375V19.125H82V16.5Z" fill="#29E3A9"/>
<path d="M79.375 16.5H76.75V19.125H79.375V16.5Z" fill="#29E3A9"/>
<path d="M76.75 16.5H74.125V19.125H76.75V16.5Z" fill="#29E3A9"/>
<path d="M82 13.875H79.375V16.5H82V13.875Z" fill="#29E3A9"/>
<path d="M79.375 13.875H76.75V16.5H79.375V13.875Z" fill="#29E3A9"/>
<path d="M82 11.25H79.375V13.875H82V11.25Z" fill="#29E3A9"/>
<path d="M79.375 11.25H76.75V13.875H79.375V11.25Z" fill="#29E3A9"/>
<path d="M82 8.625H79.375V11.25H82V8.625Z" fill="#29E3A9"/>
<path d="M79.375 8.625H76.75V11.25H79.375V8.625Z" fill="#29E3A9"/>
<path d="M82 6H79.375V8.625H82V6Z" fill="#29E3A9"/>
<path d="M79.375 6H76.75V8.625H79.375V6Z" fill="#29E3A9"/>
<path d="M84.625 0.75H82V3.375H84.625V0.75Z" fill="#BFF728"/>
<path d="M82 3.375H79.375V6H82V3.375Z" fill="#BFF728"/>
<path d="M79.375 3.375H76.75V6H79.375V3.375Z" fill="#BFF728"/>
<path d="M76.75 0.75H74.125V3.375H76.75V0.75Z" fill="#BFF728"/>
<path d="M82 0.75H79.375V3.375H82V0.75Z" fill="#BFF728"/>
<path d="M79.375 0.75H76.75V3.375H79.375V0.75Z" fill="#BFF728"/>
<path d="M103 84.75H100.375V87.375H103V84.75Z" fill="#80CFB6"/>
</svg>
