<svg width="304" height="194" viewBox="0 0 304 194" fill="none" xmlns="http://www.w3.org/2000/svg">
<g filter="url(#filter0_dddd_994_747)">
<g clip-path="url(#clip0_994_747)">
<g filter="url(#filter1_d_994_747)">
<rect x="11" y="10.4551" width="282" height="173.09" rx="3.88966" fill="#333333"/>
</g>
<path d="M45.7541 60.4805L45.8124 61.7835C45.5791 61.8224 45.5013 61.8418 45.229 61.9002C43.6342 62.2308 42.7007 62.3864 41.7866 62.4836V65.8482C43.4786 65.3425 44.665 65.148 45.968 65.148C47.3489 65.148 48.5157 65.4203 49.4104 65.9649C50.694 66.7234 51.4135 67.968 51.4135 69.4072C51.4135 71.6827 49.6826 73.433 47.4461 73.433C45.9097 73.433 44.8206 72.6356 44.4511 71.2354C44.276 70.5936 44.1982 70.0101 44.2177 69.0377C44.8206 68.8821 45.0151 68.8043 45.5013 68.532C45.4624 68.8821 45.4624 69.0572 45.4624 69.2905C45.4624 71.3132 46.0458 72.1494 47.4655 72.1494C48.9825 72.1494 50.0716 71.002 50.0716 69.4072C50.0716 67.5013 48.4574 66.3149 45.9097 66.3149C44.665 66.3149 43.4203 66.5483 41.7866 67.0734V71.9355C41.7866 72.9857 41.3199 73.4914 40.3669 73.4914C39.2778 73.4914 38.0137 73.0052 37.158 72.2467C36.5551 71.7216 36.2633 71.1187 36.2633 70.4185C36.2633 69.5628 36.7495 68.7265 37.7997 67.8319C38.5193 67.229 39.3167 66.7623 40.542 66.2371V62.5614C40.3669 62.5809 40.3669 62.5809 39.764 62.6198C39.414 62.6392 39.0833 62.6392 38.5193 62.6392C38.2276 62.6392 37.7025 62.6392 37.4886 62.6198C37.2552 62.6198 37.0996 62.6198 37.0413 62.6198C36.9635 62.6198 36.8468 62.6198 36.6912 62.6198V61.3362C37.2552 61.4334 37.7997 61.4723 38.6749 61.4723C39.2 61.4723 39.9585 61.4529 40.542 61.414V59.4886C40.542 58.7107 40.5225 58.2245 40.4447 57.641H41.8839C41.8061 58.1856 41.7866 58.5551 41.7866 59.4497V61.3167C43.4592 61.1028 44.6844 60.85 45.7541 60.4805ZM40.542 71.2159V67.5207C38.6166 68.4543 37.5275 69.5045 37.5275 70.438C37.5275 70.8464 37.7997 71.2354 38.3637 71.6049C38.8888 71.9355 39.589 72.1689 40.0946 72.1689C40.4836 72.1689 40.542 72.0522 40.542 71.2159ZM52.2304 62.9893L51.2191 63.8645C50.1883 62.4253 48.8075 61.0834 47.2905 60.0526L48.3018 59.2941C50.0911 60.5583 51.0635 61.4918 52.2304 62.9893ZM62.4991 67.1512H61.5072C61.2933 70.5547 60.6515 72.48 59.0762 74.5416C58.7261 74.2109 58.5705 74.0943 58.0843 73.822C59.8152 71.7605 60.4181 69.2711 60.4181 64.2534C60.4181 63.3783 60.3792 62.7754 60.3014 62.0947C60.8654 62.153 61.3516 62.1725 62.2657 62.1725H65.1829V62.0558C65.1829 61.2389 65.1635 60.85 65.0662 60.3832H66.4276C66.3498 60.85 66.3304 61.2584 66.3304 62.0558V62.1725H68.8586C70.0839 62.1725 70.5312 62.153 70.9396 62.0752L71.6981 62.6781C71.562 62.8531 71.562 62.8531 70.784 64.1562C70.5506 64.5451 70.2589 64.973 69.8311 65.5565C69.4226 65.3036 69.2865 65.2453 68.7809 65.0897C69.4226 64.3701 69.7144 63.9423 70.0839 63.2227H66.3304V66.1594H67.8862C68.917 66.1594 69.2671 66.1399 69.6755 66.0621L70.4534 66.8011C70.2978 66.9956 70.22 67.1318 70.0255 67.4624C69.0726 69.0377 68.2169 70.1268 67.0111 71.2548C68.4891 72.2467 70.0839 72.9079 72.3788 73.433C72.0482 73.7442 71.8537 74.0554 71.6203 74.5999C69.2476 73.8998 67.614 73.1218 66.1359 72.0133C64.8523 73.0246 63.4326 73.7831 61.3516 74.5999C61.1377 74.2109 60.9043 73.9192 60.5542 73.6275C62.5574 72.9274 63.8799 72.2661 65.2413 71.2743C63.8799 69.9907 63.2575 69.0572 62.4991 67.1512ZM61.5655 66.1594H65.1829V63.2227H61.585V64.798C61.585 65.2453 61.585 65.537 61.5655 66.1594ZM68.8586 67.1512H63.6465C64.3078 68.6876 64.8718 69.5045 66.1164 70.5741C67.3417 69.5045 68.0613 68.6098 68.8586 67.1512ZM63.841 58.769V58.6329C63.841 57.816 63.8215 57.4076 63.7437 56.9798H65.1829C65.0857 57.4076 65.0468 57.7771 65.0468 58.6329V58.769H69.9672C71.0952 58.769 71.4453 58.7496 72.0482 58.6523V59.9554C71.3675 59.8776 70.9591 59.8581 69.9672 59.8581H58.6872V63.281C58.6677 69.2516 57.9871 71.9744 55.8283 74.6388C55.4588 74.2109 55.206 74.0165 54.7781 73.7831C55.7116 72.7134 56.2173 71.916 56.6062 70.8075C57.0146 69.7184 57.2091 68.7265 57.3453 67.2096C56.9369 67.4624 55.9839 68.0264 55.2449 68.4154C55.0504 68.5126 54.7392 68.7071 54.6614 68.7654L54.1557 67.5013C54.8753 67.3457 56.1395 66.7623 57.4036 66.0427C57.4231 65.6731 57.4231 65.3425 57.462 63.8645C57.462 63.7478 57.462 63.5533 57.462 63.5338C57.462 60.1109 57.4425 59.4108 57.3453 58.6718C58.0649 58.7496 58.6483 58.769 59.504 58.769H63.841ZM54.3891 61.0056L55.3615 60.5194C56.0228 61.8224 56.2756 62.4253 56.8007 64.0784L55.77 64.6229C55.3226 63.0087 55.0504 62.3086 54.3891 61.0056ZM74.946 70.8853L74.168 69.485C74.7126 69.1349 76.1129 67.7736 77.5909 66.1983C77.6104 65.4203 77.6493 64.1951 77.7076 62.4836C75.1015 62.6587 75.1015 62.6587 74.6542 62.7559L74.5764 61.414C74.8876 61.4529 75.0043 61.4529 75.1793 61.4529C75.2377 61.4529 76.0934 61.3945 77.7271 61.2973C77.7854 59.8192 77.8049 58.944 77.8049 58.6912C77.8049 58.2828 77.7854 58.1078 77.7465 57.7188L79.2829 57.7383C79.1857 58.205 79.1273 58.8274 79.0495 61.2C79.2246 61.1806 79.2829 61.1611 79.4385 61.1028L79.9442 61.7057C79.6913 61.9196 79.458 62.2114 78.9523 62.9115C78.9523 63.1254 78.9523 63.281 78.9329 63.3977C78.9134 63.7867 78.9134 63.7867 78.894 64.7007C78.894 64.7007 78.894 64.7785 78.8745 64.8758C78.8745 65.0314 78.8551 65.0703 78.8551 65.1869L78.894 65.2064C79.1857 64.7785 79.8469 64.1562 81.3639 62.9309C83.1337 61.5112 84.5923 60.7916 85.7592 60.7916C87.1595 60.7916 88.0347 61.6668 88.0347 63.0671C88.0347 63.7283 87.918 64.4479 87.5873 65.9065C86.8678 69.0377 86.7511 69.7184 86.7511 70.5158C86.7511 71.4104 87.1595 71.8966 87.918 71.8966C88.4431 71.8966 89.1043 71.4687 89.5711 70.8269C90.0573 70.1463 90.4462 69.3489 90.6796 68.5904C91.088 69.31 91.2047 69.485 91.5742 69.9129C91.0297 70.9436 90.8158 71.2937 90.3684 71.8383C89.5905 72.7912 88.7153 73.2385 87.6846 73.2385C87.1789 73.2385 86.6733 73.0829 86.3232 72.8301C85.6814 72.3828 85.4091 71.7021 85.4091 70.613C85.4091 69.6212 85.448 69.4072 86.1482 66.0816C86.5371 64.3118 86.6344 63.6894 86.6344 63.1643C86.6344 62.5225 86.226 62.1141 85.5647 62.1141C84.8062 62.1141 83.8727 62.542 82.628 63.4366C81.4611 64.2923 80.9166 64.7785 78.8745 66.7428V70.9436C78.8745 73.433 78.8745 73.5886 78.9329 74.172H77.4159C77.5326 73.4525 77.5326 73.4525 77.552 70.9631C77.552 68.6876 77.552 68.6876 77.6104 67.8125H77.5715C77.4937 67.968 77.4353 68.0264 77.2214 68.2792C76.9297 68.6098 76.9297 68.6098 76.2684 69.3489C76.0545 69.5823 75.7822 69.8934 75.4516 70.2629C75.1404 70.613 75.0821 70.6714 74.946 70.8853ZM95.5806 66.8206L95.2305 65.4009C95.7167 65.362 95.814 65.3425 97.0198 65.0508C99.5675 64.4479 101.279 64.1951 102.951 64.1951C104.955 64.1951 106.335 64.798 107.075 66.0038C107.463 66.6261 107.677 67.4235 107.677 68.2209C107.677 70.3991 105.927 72.3828 103.224 73.2385C102.037 73.608 101.571 73.6858 99.2174 73.9776C99.1007 73.433 99.0229 73.2385 98.7118 72.6356C98.8284 72.6551 98.9062 72.6551 98.984 72.6551C100.19 72.6551 101.707 72.4217 102.815 72.0522C105.032 71.3326 106.374 69.8545 106.374 68.1236C106.374 66.3538 105.13 65.4009 102.776 65.4009C101.473 65.4009 99.9759 65.6343 97.6615 66.1788C96.4752 66.4511 96.164 66.5483 95.5806 66.8206ZM121.441 60.3443L121.403 58.8079C121.403 58.3023 121.383 58.0883 121.325 57.6799H122.783C122.706 58.3023 122.686 58.594 122.686 60.1109V60.3249C126.362 60.3054 127.859 60.2665 128.501 60.1887V61.5696C127.782 61.4918 127.101 61.4723 124.787 61.4723C124.495 61.4723 124.281 61.4723 122.706 61.5112V65.362C123.036 66.1788 123.172 66.8011 123.172 67.6569C123.172 69.6795 122.239 71.4687 120.566 72.7329C119.769 73.3163 118.913 73.7636 117.493 74.3082C117.163 73.6858 117.046 73.5108 116.638 73.0829C118.155 72.5967 119.01 72.2078 119.788 71.6243C121.208 70.5547 121.889 69.2905 121.967 67.5207C121.792 67.9875 121.675 68.2014 121.441 68.4737C120.858 69.1738 120.022 69.5239 118.991 69.5239C117.124 69.5239 115.801 68.2403 115.801 66.4511C115.801 64.6035 117.26 63.2421 119.244 63.2421C120.177 63.2421 120.994 63.5533 121.5 64.1173C121.48 63.845 121.48 63.7672 121.48 63.0476C121.48 62.9698 121.461 62.7754 121.461 62.542C121.461 62.2697 121.461 62.2697 121.461 61.5307C117.552 61.6085 113.623 61.8029 112.32 62.0169L112.262 60.5971C112.612 60.6166 112.748 60.6166 113.04 60.6166C113.604 60.6166 113.604 60.6166 116.735 60.4999C118.602 60.4221 120.119 60.3832 121.441 60.3443ZM121.383 66.0232C121.383 65.3814 121.13 64.973 120.566 64.6618C120.197 64.4479 119.788 64.3507 119.263 64.3507C118.038 64.3507 117.105 65.2258 117.105 66.3927C117.105 67.5207 117.921 68.3181 119.108 68.3181C120.45 68.3181 121.383 67.3846 121.383 66.0232ZM131.971 68.7265C133.585 68.7265 134.888 70.0296 134.888 71.6438C134.888 73.258 133.585 74.561 131.971 74.561C130.356 74.561 129.053 73.258 129.053 71.6438C129.053 70.0296 130.356 68.7265 131.971 68.7265ZM131.971 69.8351C130.979 69.8351 130.162 70.6519 130.162 71.6438C130.162 72.6356 130.979 73.4525 131.971 73.4525C132.962 73.4525 133.779 72.6356 133.779 71.6438C133.779 70.6519 132.962 69.8351 131.971 69.8351Z" fill="#999999"/>
<path d="M45.7541 120.771L45.8124 122.075C45.5791 122.113 45.5013 122.133 45.229 122.191C43.6342 122.522 42.7007 122.677 41.7866 122.775V126.139C43.4786 125.634 44.665 125.439 45.968 125.439C47.3489 125.439 48.5157 125.711 49.4104 126.256C50.694 127.014 51.4135 128.259 51.4135 129.698C51.4135 131.974 49.6826 133.724 47.4461 133.724C45.9097 133.724 44.8206 132.927 44.4511 131.526C44.276 130.885 44.1982 130.301 44.2177 129.329C44.8206 129.173 45.0151 129.095 45.5013 128.823C45.4624 129.173 45.4624 129.348 45.4624 129.582C45.4624 131.604 46.0458 132.44 47.4655 132.44C48.9825 132.44 50.0716 131.293 50.0716 129.698C50.0716 127.792 48.4574 126.606 45.9097 126.606C44.665 126.606 43.4203 126.839 41.7866 127.364V132.227C41.7866 133.277 41.3199 133.782 40.3669 133.782C39.2778 133.782 38.0137 133.296 37.158 132.538C36.5551 132.013 36.2633 131.41 36.2633 130.71C36.2633 129.854 36.7495 129.018 37.7997 128.123C38.5193 127.52 39.3167 127.053 40.542 126.528V122.852C40.3669 122.872 40.3669 122.872 39.764 122.911C39.414 122.93 39.0833 122.93 38.5193 122.93C38.2276 122.93 37.7025 122.93 37.4886 122.911C37.2552 122.911 37.0996 122.911 37.0413 122.911C36.9635 122.911 36.8468 122.911 36.6912 122.911V121.627C37.2552 121.724 37.7997 121.763 38.6749 121.763C39.2 121.763 39.9585 121.744 40.542 121.705V119.78C40.542 119.002 40.5225 118.515 40.4447 117.932H41.8839C41.8061 118.477 41.7866 118.846 41.7866 119.741V121.608C43.4592 121.394 44.6844 121.141 45.7541 120.771ZM40.542 131.507V127.812C38.6166 128.745 37.5275 129.795 37.5275 130.729C37.5275 131.137 37.7997 131.526 38.3637 131.896C38.8888 132.227 39.589 132.46 40.0946 132.46C40.4836 132.46 40.542 132.343 40.542 131.507ZM52.2304 123.28L51.2191 124.155C50.1883 122.716 48.8075 121.374 47.2905 120.344L48.3018 119.585C50.0911 120.849 51.0635 121.783 52.2304 123.28ZM62.4991 127.442H61.5072C61.2933 130.846 60.6515 132.771 59.0762 134.833C58.7261 134.502 58.5705 134.385 58.0843 134.113C59.8152 132.051 60.4181 129.562 60.4181 124.544C60.4181 123.669 60.3792 123.066 60.3014 122.386C60.8654 122.444 61.3516 122.463 62.2657 122.463H65.1829V122.347C65.1829 121.53 65.1635 121.141 65.0662 120.674H66.4276C66.3498 121.141 66.3304 121.549 66.3304 122.347V122.463H68.8586C70.0839 122.463 70.5312 122.444 70.9396 122.366L71.6981 122.969C71.562 123.144 71.562 123.144 70.784 124.447C70.5506 124.836 70.2589 125.264 69.8311 125.847C69.4226 125.595 69.2865 125.536 68.7809 125.381C69.4226 124.661 69.7144 124.233 70.0839 123.514H66.3304V126.45H67.8862C68.917 126.45 69.2671 126.431 69.6755 126.353L70.4534 127.092C70.2978 127.287 70.22 127.423 70.0255 127.753C69.0726 129.329 68.2169 130.418 67.0111 131.546C68.4891 132.538 70.0839 133.199 72.3788 133.724C72.0482 134.035 71.8537 134.346 71.6203 134.891C69.2476 134.191 67.614 133.413 66.1359 132.304C64.8523 133.316 63.4326 134.074 61.3516 134.891C61.1377 134.502 60.9043 134.21 60.5542 133.919C62.5574 133.218 63.8799 132.557 65.2413 131.565C63.8799 130.282 63.2575 129.348 62.4991 127.442ZM61.5655 126.45H65.1829V123.514H61.585V125.089C61.585 125.536 61.585 125.828 61.5655 126.45ZM68.8586 127.442H63.6465C64.3078 128.979 64.8718 129.795 66.1164 130.865C67.3417 129.795 68.0613 128.901 68.8586 127.442ZM63.841 119.06V118.924C63.841 118.107 63.8215 117.699 63.7437 117.271H65.1829C65.0857 117.699 65.0468 118.068 65.0468 118.924V119.06H69.9672C71.0952 119.06 71.4453 119.041 72.0482 118.943V120.246C71.3675 120.169 70.9591 120.149 69.9672 120.149H58.6872V123.572C58.6677 129.543 57.9871 132.265 55.8283 134.93C55.4588 134.502 55.206 134.307 54.7781 134.074C55.7116 133.004 56.2173 132.207 56.6062 131.099C57.0146 130.009 57.2091 129.018 57.3453 127.501C56.9369 127.753 55.9839 128.317 55.2449 128.706C55.0504 128.804 54.7392 128.998 54.6614 129.056L54.1557 127.792C54.8753 127.637 56.1395 127.053 57.4036 126.334C57.4231 125.964 57.4231 125.634 57.462 124.155C57.462 124.039 57.462 123.844 57.462 123.825C57.462 120.402 57.4425 119.702 57.3453 118.963C58.0649 119.041 58.6483 119.06 59.504 119.06H63.841ZM54.3891 121.297L55.3615 120.81C56.0228 122.113 56.2756 122.716 56.8007 124.369L55.77 124.914C55.3226 123.3 55.0504 122.6 54.3891 121.297ZM74.946 131.176L74.168 129.776C74.7126 129.426 76.1129 128.065 77.5909 126.489C77.6104 125.711 77.6493 124.486 77.7076 122.775C75.1015 122.95 75.1015 122.95 74.6542 123.047L74.5764 121.705C74.8876 121.744 75.0043 121.744 75.1793 121.744C75.2377 121.744 76.0934 121.686 77.7271 121.588C77.7854 120.11 77.8049 119.235 77.8049 118.982C77.8049 118.574 77.7854 118.399 77.7465 118.01L79.2829 118.029C79.1857 118.496 79.1273 119.118 79.0495 121.491C79.2246 121.472 79.2829 121.452 79.4385 121.394L79.9442 121.997C79.6913 122.211 79.458 122.502 78.9523 123.203C78.9523 123.416 78.9523 123.572 78.9329 123.689C78.9134 124.078 78.9134 124.078 78.894 124.992C78.894 124.992 78.894 125.07 78.8745 125.167C78.8745 125.322 78.8551 125.361 78.8551 125.478L78.894 125.497C79.1857 125.07 79.8469 124.447 81.3639 123.222C83.1337 121.802 84.5923 121.083 85.7592 121.083C87.1595 121.083 88.0347 121.958 88.0347 123.358C88.0347 124.019 87.918 124.739 87.5873 126.198C86.8678 129.329 86.7511 130.009 86.7511 130.807C86.7511 131.701 87.1595 132.188 87.918 132.188C88.4431 132.188 89.1043 131.76 89.5711 131.118C90.0573 130.437 90.4462 129.64 90.6796 128.881C91.088 129.601 91.2047 129.776 91.5742 130.204C91.0297 131.235 90.8158 131.585 90.3684 132.129C89.5905 133.082 88.7153 133.53 87.6846 133.53C87.1789 133.53 86.6733 133.374 86.3232 133.121C85.6814 132.674 85.4091 131.993 85.4091 130.904C85.4091 129.912 85.448 129.698 86.1482 126.373C86.5371 124.603 86.6344 123.98 86.6344 123.455C86.6344 122.814 86.226 122.405 85.5647 122.405C84.8062 122.405 83.8727 122.833 82.628 123.728C81.4611 124.583 80.9166 125.07 78.8745 127.034V131.235C78.8745 133.724 78.8745 133.88 78.9329 134.463H77.4159C77.5326 133.743 77.5326 133.743 77.552 131.254C77.552 128.979 77.552 128.979 77.6104 128.103H77.5715C77.4937 128.259 77.4353 128.317 77.2214 128.57C76.9297 128.901 76.9297 128.901 76.2684 129.64C76.0545 129.873 75.7822 130.184 75.4516 130.554C75.1404 130.904 75.0821 130.962 74.946 131.176ZM94.9777 123.3L94.8999 121.88C95.4055 121.958 95.7362 121.977 96.3974 121.977C98.1672 121.977 100.365 121.822 102.193 121.569C101.901 120.908 101.59 120.13 101.24 119.255C101.026 118.749 100.909 118.477 100.734 118.127L102.271 117.913C102.349 118.418 102.349 118.418 102.835 119.663C103.302 120.908 103.36 121.005 103.535 121.374C105.421 121.063 107.191 120.596 108.241 120.149L108.436 121.53C108.027 121.608 107.872 121.647 107.288 121.802C106.122 122.113 105.888 122.172 104.663 122.405C104.196 122.502 104.196 122.502 104.002 122.541C104.702 124.058 106.141 126.392 107.502 128.201L106.199 128.94C105.674 128.512 105.402 128.337 104.857 128.142C103.866 127.812 102.776 127.637 101.454 127.637C99.8203 127.637 98.634 127.909 97.7588 128.454C97.117 128.862 96.7086 129.562 96.7086 130.262C96.7086 130.865 96.9809 131.39 97.4476 131.779C98.1672 132.343 99.5675 132.674 101.24 132.674C103.165 132.674 105.305 132.188 106.763 131.429L106.977 132.927C105.032 133.646 103.185 133.977 101.259 133.977C98.8868 133.977 97.0975 133.452 96.2029 132.518C95.6389 131.915 95.3278 131.157 95.3278 130.379C95.3278 129.095 96.164 127.87 97.5254 127.209C98.5562 126.703 99.7231 126.489 101.298 126.489C102.971 126.489 104.507 126.762 105.324 127.189C104.313 125.809 103.827 125.011 102.99 123.378C102.776 122.969 102.776 122.93 102.66 122.736C100.734 123.008 98.3033 123.203 95.7362 123.241C95.3666 123.241 95.2694 123.261 94.9777 123.3ZM128.293 132.032L127.515 133.393C126.62 132.46 125.2 131.468 123.547 130.612C123.217 130.437 122.769 130.243 122.244 130.029C122.283 130.476 122.283 130.476 122.283 130.729C122.283 131.76 122.147 132.382 121.797 132.849C121.233 133.646 120.047 134.074 118.51 134.074C117.227 134.074 116.157 133.802 115.496 133.296C114.834 132.81 114.445 132.051 114.445 131.254C114.445 129.971 115.457 128.959 117.168 128.57C117.752 128.434 118.335 128.376 119.191 128.376C119.833 128.376 120.105 128.395 120.941 128.531C120.922 128.473 120.922 128.473 120.922 128.298C120.922 128.279 120.902 128.201 120.902 128.084C120.883 127.909 120.883 127.501 120.863 126.937C120.844 126.684 120.844 126.314 120.824 125.809C120.124 125.828 119.152 125.847 118.53 125.847C117.363 125.847 116.449 125.809 115.243 125.711C115.029 125.692 114.873 125.692 114.757 125.692C114.737 125.692 114.659 125.692 114.601 125.692L114.62 124.408C115.496 124.603 117.11 124.719 119.074 124.719C119.58 124.719 120.26 124.719 120.805 124.7L120.766 122.036C120.202 122.055 119.891 122.055 119.444 122.055C118.024 122.055 116.449 121.997 114.698 121.861C114.562 121.841 114.445 121.841 114.348 121.841C114.29 121.841 114.193 121.841 114.076 121.861L114.095 120.538C114.932 120.771 116.954 120.927 119.074 120.927C119.463 120.927 120.124 120.908 120.766 120.908C120.747 118.535 120.747 118.535 120.669 118.107H122.166C122.089 118.515 122.05 119.449 122.03 120.849C124.714 120.674 126.717 120.402 127.787 120.052L127.884 121.374C127.554 121.394 127.554 121.394 126.542 121.53C124.714 121.802 124.189 121.861 122.03 121.997C122.05 123.591 122.05 123.591 122.069 124.622C124.714 124.428 126.387 124.194 127.456 123.825L127.534 125.167C127.281 125.186 127.087 125.206 126.406 125.303C125.064 125.517 123.528 125.672 122.089 125.77C122.127 126.859 122.127 126.859 122.205 128.745C123.897 129.212 125.589 130.107 127.631 131.585C127.943 131.818 128.04 131.876 128.293 132.032ZM120.961 130.457L120.941 129.718C120.202 129.543 119.813 129.504 118.957 129.504C117.032 129.504 115.768 130.204 115.768 131.235C115.768 132.265 116.74 132.849 118.432 132.849C119.463 132.849 120.202 132.635 120.572 132.207C120.844 131.935 120.961 131.39 120.961 130.457ZM132.357 122.25L132.26 120.713C132.63 120.733 132.824 120.733 132.96 120.733C133.232 120.733 133.466 120.713 134.069 120.674C135.158 120.596 135.275 120.577 137.667 120.441L140.72 120.246C143.112 120.11 143.365 120.091 144.007 120.071L145.115 120.032C146.788 119.935 147.157 119.896 147.43 119.819L147.546 121.258C146.768 121.258 146.107 121.335 145.368 121.53C144.065 121.861 142.704 122.561 141.634 123.475C140.078 124.778 139.242 126.353 139.242 127.967C139.242 129.601 140.234 130.904 141.965 131.565C142.918 131.915 144.143 132.188 144.882 132.188C144.921 132.188 144.999 132.188 145.076 132.188L144.824 133.763C144.61 133.724 144.571 133.705 144.221 133.646C142.295 133.316 141.128 132.907 140.02 132.149C138.639 131.215 137.861 129.795 137.861 128.181C137.861 125.925 139.184 123.786 141.498 122.211C142.101 121.802 142.607 121.53 143.346 121.18C142.237 121.374 141.109 121.472 139.067 121.608C135.197 121.88 133.057 122.075 132.357 122.25ZM144.299 124.117L145.271 123.611C146.146 124.661 146.691 125.478 147.274 126.625L146.282 127.209C145.815 126.178 144.882 124.719 144.299 124.117ZM146.516 123.066L147.469 122.541C148.344 123.611 148.83 124.35 149.472 125.575L148.499 126.12C148.071 125.206 147.274 123.961 146.516 123.066ZM160.499 120.635L160.46 119.099C160.46 118.593 160.441 118.379 160.382 117.971H161.841C161.763 118.593 161.744 118.885 161.744 120.402V120.616C165.419 120.596 166.917 120.558 167.559 120.48V121.861C166.839 121.783 166.158 121.763 163.844 121.763C163.552 121.763 163.338 121.763 161.763 121.802V125.653C162.094 126.47 162.23 127.092 162.23 127.948C162.23 129.971 161.296 131.76 159.624 133.024C158.826 133.607 157.971 134.055 156.551 134.599C156.22 133.977 156.104 133.802 155.695 133.374C157.212 132.888 158.068 132.499 158.846 131.915C160.266 130.846 160.946 129.582 161.024 127.812C160.849 128.279 160.732 128.492 160.499 128.765C159.915 129.465 159.079 129.815 158.048 129.815C156.181 129.815 154.859 128.531 154.859 126.742C154.859 124.895 156.318 123.533 158.301 123.533C159.235 123.533 160.052 123.844 160.557 124.408C160.538 124.136 160.538 124.058 160.538 123.339C160.538 123.261 160.518 123.066 160.518 122.833C160.518 122.561 160.518 122.561 160.518 121.822C156.609 121.899 152.681 122.094 151.378 122.308L151.319 120.888C151.669 120.908 151.806 120.908 152.097 120.908C152.661 120.908 152.661 120.908 155.792 120.791C157.659 120.713 159.176 120.674 160.499 120.635ZM160.441 126.314C160.441 125.672 160.188 125.264 159.624 124.953C159.254 124.739 158.846 124.642 158.321 124.642C157.095 124.642 156.162 125.517 156.162 126.684C156.162 127.812 156.979 128.609 158.165 128.609C159.507 128.609 160.441 127.676 160.441 126.314ZM171.028 129.018C172.642 129.018 173.945 130.321 173.945 131.935C173.945 133.549 172.642 134.852 171.028 134.852C169.414 134.852 168.111 133.549 168.111 131.935C168.111 130.321 169.414 129.018 171.028 129.018ZM171.028 130.126C170.036 130.126 169.219 130.943 169.219 131.935C169.219 132.927 170.036 133.743 171.028 133.743C172.02 133.743 172.837 132.927 172.837 131.935C172.837 130.943 172.02 130.126 171.028 130.126Z" fill="#EEEEEE"/>
<ellipse cx="23.3497" cy="19.8892" rx="2.62552" ry="2.62552" fill="#EC6C5C"/>
<ellipse cx="32.1014" cy="19.8892" rx="2.62552" ry="2.62552" fill="#F3BF4B"/>
<ellipse cx="40.8531" cy="19.8892" rx="2.62552" ry="2.62552" fill="#5FC552"/>
<line x1="11" y1="29.4181" x2="293" y2="29.4181" stroke="#555555" stroke-width="0.972414"/>
</g>
</g>
<defs>
<filter id="filter0_dddd_994_747" x="0.627584" y="0.0826626" width="302.745" height="193.835" filterUnits="userSpaceOnUse" color-interpolation-filters="sRGB">
<feFlood flood-opacity="0" result="BackgroundImageFix"/>
<feColorMatrix in="SourceAlpha" type="matrix" values="0 0 0 0 0 0 0 0 0 0 0 0 0 0 0 0 0 0 127 0" result="hardAlpha"/>
<feOffset dx="3.88966" dy="3.88966"/>
<feGaussianBlur stdDeviation="1.94483"/>
<feComposite in2="hardAlpha" operator="out"/>
<feColorMatrix type="matrix" values="0 0 0 0 1 0 0 0 0 1 0 0 0 0 1 0 0 0 0.05 0"/>
<feBlend mode="normal" in2="BackgroundImageFix" result="effect1_dropShadow_994_747"/>
<feColorMatrix in="SourceAlpha" type="matrix" values="0 0 0 0 0 0 0 0 0 0 0 0 0 0 0 0 0 0 127 0" result="hardAlpha"/>
<feOffset dx="-5.18621" dy="-5.18621"/>
<feGaussianBlur stdDeviation="2.5931"/>
<feComposite in2="hardAlpha" operator="out"/>
<feColorMatrix type="matrix" values="0 0 0 0 1 0 0 0 0 1 0 0 0 0 1 0 0 0 0.05 0"/>
<feBlend mode="normal" in2="effect1_dropShadow_994_747" result="effect2_dropShadow_994_747"/>
<feColorMatrix in="SourceAlpha" type="matrix" values="0 0 0 0 0 0 0 0 0 0 0 0 0 0 0 0 0 0 127 0" result="hardAlpha"/>
<feOffset dx="-5.18621" dy="5.18621"/>
<feGaussianBlur stdDeviation="2.5931"/>
<feComposite in2="hardAlpha" operator="out"/>
<feColorMatrix type="matrix" values="0 0 0 0 1 0 0 0 0 1 0 0 0 0 1 0 0 0 0.05 0"/>
<feBlend mode="normal" in2="effect2_dropShadow_994_747" result="effect3_dropShadow_994_747"/>
<feColorMatrix in="SourceAlpha" type="matrix" values="0 0 0 0 0 0 0 0 0 0 0 0 0 0 0 0 0 0 127 0" result="hardAlpha"/>
<feOffset dx="5.18621" dy="-5.18621"/>
<feGaussianBlur stdDeviation="2.5931"/>
<feComposite in2="hardAlpha" operator="out"/>
<feColorMatrix type="matrix" values="0 0 0 0 1 0 0 0 0 1 0 0 0 0 1 0 0 0 0.05 0"/>
<feBlend mode="normal" in2="effect3_dropShadow_994_747" result="effect4_dropShadow_994_747"/>
<feBlend mode="normal" in="SourceGraphic" in2="effect4_dropShadow_994_747" result="shape"/>
</filter>
<filter id="filter1_d_994_747" x="11" y="10.4551" width="289.779" height="180.869" filterUnits="userSpaceOnUse" color-interpolation-filters="sRGB">
<feFlood flood-opacity="0" result="BackgroundImageFix"/>
<feColorMatrix in="SourceAlpha" type="matrix" values="0 0 0 0 0 0 0 0 0 0 0 0 0 0 0 0 0 0 127 0" result="hardAlpha"/>
<feOffset dx="3.88966" dy="3.88966"/>
<feGaussianBlur stdDeviation="1.94483"/>
<feComposite in2="hardAlpha" operator="out"/>
<feColorMatrix type="matrix" values="0 0 0 0 0 0 0 0 0 0 0 0 0 0 0 0 0 0 0.25 0"/>
<feBlend mode="normal" in2="BackgroundImageFix" result="effect1_dropShadow_994_747"/>
<feBlend mode="normal" in="SourceGraphic" in2="effect1_dropShadow_994_747" result="shape"/>
</filter>
<clipPath id="clip0_994_747">
<rect x="11" y="10.4551" width="282" height="173.09" rx="10.3724" fill="white"/>
</clipPath>
</defs>
</svg>
